<svg version="1.1" id="Layer_1" xmlns="http://www.w3.org/2000/svg" xmlns:xlink="http://www.w3.org/1999/xlink" x="0px" y="0px"
	 width="100%" viewBox="0 0 438 115" enable-background="new 0 0 438 115" xml:space="preserve">
<path fill="#FDFDFD" opacity="1.000000" stroke="none" 
	d="
M439.000000,80.000000 
	C439.000000,91.985680 439.000000,103.971367 439.000000,116.000000 
	C328.979095,116.000000 218.958206,116.000000 108.633621,115.695435 
	C114.087288,113.294617 116.369644,109.138306 116.346848,103.079979 
	C116.237236,73.947525 116.131012,44.812786 116.419235,15.682769 
	C116.488167,8.716040 114.234039,3.933734 108.000000,1.000000 
	C218.209763,1.000000 328.419525,1.000000 439.000000,1.000000 
	C439.000000,20.686010 439.000000,40.374348 438.642212,60.423058 
	C435.395874,49.268784 428.889801,43.827911 418.177399,43.968437 
	C407.810883,44.104427 399.827576,50.151299 398.404358,60.652058 
	C397.488708,67.407784 398.270721,74.515015 399.158234,81.352219 
	C399.778961,86.134201 403.215149,89.578293 407.707153,91.675766 
	C420.607056,97.699165 432.693176,93.084114 438.416168,80.033012 
	C438.611328,80.051041 439.000000,80.000000 439.000000,80.000000 
M190.866302,75.278481 
	C192.273834,69.287819 193.681366,63.297157 195.088898,57.306499 
	C195.390518,57.324429 195.692154,57.342361 195.993774,57.360291 
	C198.737885,69.108047 201.482010,80.855804 204.237076,92.650467 
	C210.586548,92.650467 216.691467,92.650467 223.037598,92.650467 
	C226.466949,75.231560 229.779449,57.945606 233.363281,40.716091 
	C233.881042,38.226887 235.702057,36.008759 236.919983,33.665192 
	C237.328079,33.846138 237.736176,34.027088 238.144272,34.208038 
	C238.144272,30.592279 238.144272,26.976522 238.144272,23.321865 
	C231.072495,23.321865 224.202087,23.321865 217.446259,23.321865 
	C217.446259,27.454363 217.446259,31.205530 217.446259,34.922173 
	C219.195984,35.101822 220.658722,35.252007 222.519455,35.443054 
	C220.553421,46.714897 218.625961,57.765625 216.698486,68.816353 
	C216.387070,68.860382 216.075653,68.904411 215.764236,68.948441 
	C212.457184,53.689049 209.150131,38.429661 205.848984,23.197495 
	C201.408066,23.197495 197.303513,23.197495 193.183899,23.197495 
	C189.576767,38.436558 186.024307,53.444679 182.471848,68.452805 
	C182.105255,68.404106 181.738678,68.355408 181.372086,68.306717 
	C179.766037,57.425205 178.159988,46.543694 176.519516,35.429016 
	C178.420380,35.203457 179.838531,35.035179 181.323883,34.858925 
	C181.323883,30.863012 181.323883,27.097734 181.323883,23.196938 
	C171.841522,23.196938 162.601532,23.196938 153.184662,23.196938 
	C153.184662,27.216146 153.184662,30.989187 153.184662,34.762230 
	C153.612045,34.543636 154.039429,34.325039 154.466812,34.106445 
	C155.585327,35.791771 157.341339,37.347229 157.715576,39.184181 
	C159.672195,48.788799 161.228516,58.474083 163.021164,68.113251 
	C164.557663,76.375168 166.225143,84.612724 167.788345,92.623505 
	C174.410217,92.623505 180.364853,92.623505 186.493317,92.623505 
	C187.888657,86.986862 189.240112,81.527489 190.866302,75.278481 
M327.681183,92.052094 
	C334.215027,95.332214 340.060730,94.113792 345.269196,88.782463 
	C345.671143,90.502556 345.943878,91.669556 346.166382,92.621704 
	C352.836029,92.621704 359.102631,92.621704 365.582520,92.621704 
	C365.582520,89.118477 365.582520,85.852921 365.582520,82.425591 
	C364.338562,82.034683 363.056976,81.631958 361.511963,81.146446 
	C361.511963,61.660072 361.511963,42.427750 361.511963,23.290232 
	C354.407898,23.290232 347.679260,23.290232 341.020325,23.290232 
	C341.020325,26.936710 341.020325,30.236217 341.020325,33.796741 
	C342.520294,33.931110 343.909393,34.055553 345.499664,34.198013 
	C345.499664,39.333622 345.499664,44.219498 345.499664,49.406147 
	C344.890747,49.057999 344.401062,48.933220 344.161316,48.618198 
	C338.318970,40.940956 323.440979,43.423927 321.920837,54.767101 
	C320.767975,63.369308 320.847717,72.259964 321.543365,80.928833 
	C321.841248,84.640274 325.096344,88.114395 327.681183,92.052094 
M244.682159,48.084621 
	C236.020767,56.070198 235.875031,66.360474 237.635452,76.724228 
	C239.759018,89.225906 247.409622,94.833054 259.709412,93.967781 
	C271.495392,93.138649 278.157318,86.274925 278.997772,73.970406 
	C279.179016,71.317085 279.146484,68.639305 279.051300,65.978561 
	C278.366516,46.837952 261.783386,37.859062 244.682159,48.084621 
M369.873474,29.431086 
	C369.951019,30.874069 370.028595,32.317055 370.102081,33.684464 
	C371.678925,33.941021 372.921967,34.143269 374.110596,34.336662 
	C374.110596,50.224388 374.110596,65.820618 374.110596,81.597153 
	C372.674927,81.805359 371.452972,81.982567 370.444458,82.128822 
	C370.444458,85.930199 370.444458,89.315025 370.444458,92.625946 
	C378.591949,92.625946 386.354034,92.625946 394.342773,92.625946 
	C394.342773,89.113464 394.342773,85.831985 394.342773,82.308037 
	C393.050537,81.994232 391.726654,81.672752 390.134521,81.286133 
	C390.134521,61.750484 390.134521,42.508430 390.134521,23.235687 
	C383.205963,23.235687 376.639130,23.235687 369.873474,23.235687 
	C369.873474,25.173210 369.873474,26.819588 369.873474,29.431086 
M302.055511,47.718578 
	C302.325012,46.994904 302.594513,46.271233 302.886993,45.485847 
	C296.356354,45.485847 290.135956,45.485847 283.935699,45.485847 
	C283.935699,49.119953 283.935699,52.411160 283.935699,55.795578 
	C285.305603,56.100761 286.523499,56.372086 287.756409,56.646751 
	C287.756409,65.020630 287.756409,73.131973 287.756409,81.292740 
	C286.325226,81.732445 285.020050,82.133423 284.088318,82.419678 
	C284.088318,86.113243 284.088318,89.363846 284.088318,92.641434 
	C292.502563,92.641434 300.578400,92.641434 308.852692,92.641434 
	C308.852692,89.018471 308.852692,85.611908 308.852692,82.159454 
	C307.092926,81.922821 305.531219,81.712822 304.030487,81.511017 
	C302.717987,62.780167 304.050964,60.387108 316.986389,58.256336 
	C316.986389,53.871700 316.986389,49.451817 316.986389,44.908714 
	C311.885193,44.130577 308.253448,46.459881 305.021027,49.778721 
	C302.968658,51.885937 301.956421,51.507088 302.055511,47.718578 
z"/>
<path fill="#040404" opacity="1.000000" stroke="none" 
	d="
M107.531342,1.000000 
	C114.234039,3.933734 116.488167,8.716040 116.419235,15.682769 
	C116.131012,44.812786 116.237236,73.947525 116.346848,103.079979 
	C116.369644,109.138306 114.087288,113.294617 108.164963,115.695435 
	C75.645775,116.000000 43.291542,116.000000 10.199116,115.792961 
	C6.640611,113.057281 3.820305,110.528641 0.999999,108.000000 
	C1.000000,75.645775 1.000000,43.291542 1.275151,10.260715 
	C4.366868,6.722745 7.183434,3.861372 10.000000,1.000000 
	C42.354229,1.000000 74.708458,1.000000 107.531342,1.000000 
M106.636040,109.771179 
	C108.024231,107.542847 110.425423,105.394722 110.609413,103.071045 
	C111.146935,96.282135 110.718765,89.421738 110.840157,82.592407 
	C110.887306,79.939819 109.816788,79.099716 107.286835,79.150276 
	C101.623978,79.263466 95.954750,79.081863 90.293053,79.221031 
	C86.919121,79.303963 83.554543,79.767349 79.919647,80.955788 
	C79.919647,90.537560 79.919647,100.119331 79.919647,109.762306 
	C88.996025,109.762306 97.457397,109.762306 106.636040,109.771179 
M7.074794,80.495888 
	C7.074794,80.495888 7.149633,80.965485 7.003939,81.897118 
	C6.994522,89.030579 7.009415,96.164192 6.966361,103.297455 
	C6.941442,107.425972 8.478787,110.020058 13.969156,109.964767 
	C21.621572,109.902367 29.273991,109.839973 37.682674,109.428596 
	C37.682674,99.524635 37.682674,89.620674 37.682674,79.184860 
	C30.398058,79.184860 23.616011,79.094978 16.838146,79.224289 
	C13.641154,79.285286 10.452185,79.766785 7.074794,80.495888 
M79.910042,44.952068 
	C79.985008,54.284946 80.059975,63.617821 80.535347,73.689873 
	C90.451454,73.689873 100.367561,73.689873 110.425514,73.689873 
	C110.425514,63.310383 110.425514,53.431549 110.425514,43.106663 
	C102.264328,43.106663 94.469009,43.039742 86.676193,43.149658 
	C84.492401,43.180458 82.315964,43.731876 79.910042,44.952068 
M45.896824,109.997444 
	C54.941868,109.948357 63.986916,109.899277 73.545578,109.873215 
	C73.663139,109.589859 73.780701,109.306503 74.062233,108.095230 
	C74.062233,98.561401 74.062233,89.027573 74.062233,79.161911 
	C67.829529,79.161911 62.379608,79.066292 56.934799,79.191978 
	C52.529465,79.293663 46.748074,78.096283 44.150471,80.389763 
	C41.933273,82.347382 43.181122,88.454369 43.249363,92.720238 
	C43.340145,98.395622 43.773441,104.065514 44.496021,109.924995 
	C44.496021,109.924995 44.965191,109.851463 45.896824,109.997444 
M32.242508,73.785011 
	C33.850536,73.785011 35.458565,73.785011 37.289169,73.785011 
	C37.289169,63.393990 37.289169,53.519352 37.289169,43.471687 
	C27.120781,43.471687 17.247419,43.471687 7.249867,43.471687 
	C7.249867,53.610321 7.249867,63.490784 7.249867,73.785004 
	C15.419876,73.785004 23.355619,73.785004 32.242508,73.785011 
M74.077988,50.581009 
	C74.077988,48.173389 74.077988,45.765770 74.077988,43.557217 
	C63.339466,43.557217 53.451042,43.557217 43.708588,43.557217 
	C43.708588,53.876869 43.708588,63.760109 43.708588,73.631027 
	C53.948677,73.631027 63.728378,73.631027 74.078011,73.631027 
	C74.078011,66.120941 74.078011,58.839920 74.077988,50.581009 
M57.509872,7.054394 
	C52.930759,7.054394 48.351650,7.054394 43.671890,7.054394 
	C43.671890,17.451736 43.671890,27.202438 43.671890,37.198936 
	C53.798832,37.198936 63.686272,37.198936 73.667435,37.198936 
	C73.667435,27.108669 73.667435,17.231577 73.667435,7.054394 
	C68.424629,7.054394 63.464088,7.054394 57.509872,7.054394 
M7.431314,10.433713 
	C7.431314,19.352934 7.431314,28.272154 7.431314,37.146526 
	C17.372253,37.146526 27.262899,37.146526 37.210472,37.146526 
	C37.210472,26.978949 37.210472,17.114864 37.210472,7.056680 
	C29.049759,7.056680 21.241203,6.888975 13.449622,7.178323 
	C11.575734,7.247911 9.758153,8.833766 7.431314,10.433713 
M89.538589,7.054914 
	C86.432816,7.054914 83.327042,7.054914 80.192123,7.054914 
	C80.192123,17.437767 80.192123,27.206249 80.192123,37.177658 
	C90.313110,37.177658 100.214043,37.177658 110.529869,37.177658 
	C110.529869,28.950787 110.661369,20.981054 110.473709,13.018844 
	C110.381561,9.108834 108.109917,6.992479 104.019867,7.041820 
	C99.522057,7.096079 95.023102,7.054653 89.538589,7.054914 
z"/>
<path fill="#040404" opacity="1.000000" stroke="none" 
	d="
M438.221008,80.014984 
	C432.693176,93.084114 420.607056,97.699165 407.707153,91.675766 
	C403.215149,89.578293 399.778961,86.134201 399.158234,81.352219 
	C398.270721,74.515015 397.488708,67.407784 398.404358,60.652058 
	C399.827576,50.151299 407.810883,44.104427 418.177399,43.968437 
	C428.889801,43.827911 435.395874,49.268784 438.642212,60.891716 
	C439.000000,64.692909 439.000000,68.385818 438.533997,72.594833 
	C430.035767,73.110947 422.003540,73.110947 413.570709,73.110947 
	C413.888062,75.894646 413.822144,77.933708 414.393005,79.775406 
	C415.561279,83.544655 420.693756,85.243866 422.572784,82.095055 
	C426.166992,76.072083 431.417358,78.699738 436.083679,78.224472 
	C436.728638,78.158775 437.505310,79.386200 438.221008,80.014984 
M422.030334,65.983337 
	C425.873016,63.066944 423.064240,59.799641 422.051727,57.011143 
	C421.660187,55.932804 418.291718,54.778015 417.098053,55.354107 
	C412.583038,57.533272 413.976105,61.893539 413.693604,65.990532 
	C416.511292,65.990532 418.821259,65.990532 422.030334,65.983337 
z"/>
<path fill="#EFEFEF" opacity="1.000000" stroke="none" 
	d="
M438.416168,80.033012 
	C437.505310,79.386200 436.728638,78.158775 436.083679,78.224472 
	C431.417358,78.699738 426.166992,76.072083 422.572784,82.095055 
	C420.693756,85.243866 415.561279,83.544655 414.393005,79.775406 
	C413.822144,77.933708 413.888062,75.894646 413.570709,73.110947 
	C422.003540,73.110947 430.035767,73.110947 438.533997,73.055473 
	C439.000000,75.041664 439.000000,77.083336 439.000000,79.562500 
	C439.000000,80.000000 438.611328,80.051041 438.416168,80.033012 
z"/>
<path fill="#E9E9E9" opacity="1.000000" stroke="none" 
	d="
M9.508951,1.000000 
	C7.183434,3.861372 4.366868,6.722745 1.275151,9.792059 
	C1.000000,7.082645 1.000000,4.165290 1.000000,1.000000 
	C3.670005,1.000000 6.343954,1.000000 9.508951,1.000000 
z"/>
<path fill="#EFEFEF" opacity="1.000000" stroke="none" 
	d="
M0.999999,108.494736 
	C3.820305,110.528641 6.640611,113.057281 9.730458,115.792961 
	C7.088994,116.000000 4.177987,116.000000 1.000000,116.000000 
	C1.000000,113.666466 1.000000,111.327965 0.999999,108.494736 
z"/>
<path fill="#040404" opacity="1.000000" stroke="none" 
	d="
M190.728928,75.673294 
	C189.240112,81.527489 187.888657,86.986862 186.493317,92.623505 
	C180.364853,92.623505 174.410217,92.623505 167.788345,92.623505 
	C166.225143,84.612724 164.557663,76.375168 163.021164,68.113251 
	C161.228516,58.474083 159.672195,48.788799 157.715576,39.184181 
	C157.341339,37.347229 155.585327,35.791771 154.466812,34.106445 
	C154.039429,34.325039 153.612045,34.543636 153.184662,34.762230 
	C153.184662,30.989187 153.184662,27.216146 153.184662,23.196938 
	C162.601532,23.196938 171.841522,23.196938 181.323883,23.196938 
	C181.323883,27.097734 181.323883,30.863012 181.323883,34.858925 
	C179.838531,35.035179 178.420380,35.203457 176.519516,35.429016 
	C178.159988,46.543694 179.766037,57.425205 181.372086,68.306717 
	C181.738678,68.355408 182.105255,68.404106 182.471848,68.452805 
	C186.024307,53.444679 189.576767,38.436558 193.183899,23.197495 
	C197.303513,23.197495 201.408066,23.197495 205.848984,23.197495 
	C209.150131,38.429661 212.457184,53.689049 215.764236,68.948441 
	C216.075653,68.904411 216.387070,68.860382 216.698486,68.816353 
	C218.625961,57.765625 220.553421,46.714897 222.519455,35.443054 
	C220.658722,35.252007 219.195984,35.101822 217.446259,34.922173 
	C217.446259,31.205530 217.446259,27.454363 217.446259,23.321865 
	C224.202087,23.321865 231.072495,23.321865 238.144272,23.321865 
	C238.144272,26.976522 238.144272,30.592279 238.144272,34.208038 
	C237.736176,34.027088 237.328079,33.846138 236.919983,33.665192 
	C235.702057,36.008759 233.881042,38.226887 233.363281,40.716091 
	C229.779449,57.945606 226.466949,75.231560 223.037598,92.650467 
	C216.691467,92.650467 210.586548,92.650467 204.237076,92.650467 
	C201.482010,80.855804 198.737885,69.108047 195.993774,57.360291 
	C195.692154,57.342361 195.390518,57.324429 195.088898,57.306499 
	C193.681366,63.297157 192.273834,69.287819 190.728928,75.673294 
z"/>
<path fill="#060606" opacity="1.000000" stroke="none" 
	d="
M327.344482,91.874222 
	C325.096344,88.114395 321.841248,84.640274 321.543365,80.928833 
	C320.847717,72.259964 320.767975,63.369308 321.920837,54.767101 
	C323.440979,43.423927 338.318970,40.940956 344.161316,48.618198 
	C344.401062,48.933220 344.890747,49.057999 345.499664,49.406147 
	C345.499664,44.219498 345.499664,39.333622 345.499664,34.198013 
	C343.909393,34.055553 342.520294,33.931110 341.020325,33.796741 
	C341.020325,30.236217 341.020325,26.936710 341.020325,23.290232 
	C347.679260,23.290232 354.407898,23.290232 361.511963,23.290232 
	C361.511963,42.427750 361.511963,61.660072 361.511963,81.146446 
	C363.056976,81.631958 364.338562,82.034683 365.582520,82.425591 
	C365.582520,85.852921 365.582520,89.118477 365.582520,92.621704 
	C359.102631,92.621704 352.836029,92.621704 346.166382,92.621704 
	C345.943878,91.669556 345.671143,90.502556 345.269196,88.782463 
	C340.060730,94.113792 334.215027,95.332214 327.344482,91.874222 
M345.414032,78.503105 
	C345.472198,72.540031 345.848206,66.551643 345.376648,60.630760 
	C345.250641,59.048065 342.534698,57.671627 341.007782,56.200497 
	C339.685699,57.667610 337.378998,59.036152 337.220459,60.619759 
	C336.677399,66.043861 336.657745,71.555786 336.949982,77.006798 
	C337.039185,78.671356 338.564819,81.345161 339.812195,81.585320 
	C341.357361,81.882812 343.297455,80.129280 345.414032,78.503105 
z"/>
<path fill="#030303" opacity="1.000000" stroke="none" 
	d="
M244.997330,47.885590 
	C261.783386,37.859062 278.366516,46.837952 279.051300,65.978561 
	C279.146484,68.639305 279.179016,71.317085 278.997772,73.970406 
	C278.157318,86.274925 271.495392,93.138649 259.709412,93.967781 
	C247.409622,94.833054 239.759018,89.225906 237.635452,76.724228 
	C235.875031,66.360474 236.020767,56.070198 244.997330,47.885590 
M262.732880,62.157036 
	C262.616699,61.674530 262.482147,61.195602 262.387451,60.708920 
	C261.892761,58.166843 261.140778,55.183041 257.964203,56.090591 
	C256.192810,56.596676 253.969635,59.170269 253.807358,60.978802 
	C253.310593,66.515060 253.400925,72.163177 253.955719,77.698349 
	C254.121017,79.347626 256.568390,80.768173 257.970123,82.293526 
	C259.410065,80.818771 261.856812,79.492508 262.100342,77.841301 
	C262.818054,72.975021 262.662872,67.980011 262.732880,62.157036 
z"/>
<path fill="#070707" opacity="1.000000" stroke="none" 
	d="
M369.873474,28.948524 
	C369.873474,26.819588 369.873474,25.173210 369.873474,23.235687 
	C376.639130,23.235687 383.205963,23.235687 390.134521,23.235687 
	C390.134521,42.508430 390.134521,61.750484 390.134521,81.286133 
	C391.726654,81.672752 393.050537,81.994232 394.342773,82.308037 
	C394.342773,85.831985 394.342773,89.113464 394.342773,92.625946 
	C386.354034,92.625946 378.591949,92.625946 370.444458,92.625946 
	C370.444458,89.315025 370.444458,85.930199 370.444458,82.128822 
	C371.452972,81.982567 372.674927,81.805359 374.110596,81.597153 
	C374.110596,65.820618 374.110596,50.224388 374.110596,34.336662 
	C372.921967,34.143269 371.678925,33.941021 370.102081,33.684464 
	C370.028595,32.317055 369.951019,30.874069 369.873474,28.948524 
z"/>
<path fill="#050505" opacity="1.000000" stroke="none" 
	d="
M302.040771,48.124191 
	C301.956421,51.507088 302.968658,51.885937 305.021027,49.778721 
	C308.253448,46.459881 311.885193,44.130577 316.986389,44.908714 
	C316.986389,49.451817 316.986389,53.871700 316.986389,58.256336 
	C304.050964,60.387108 302.717987,62.780167 304.030487,81.511017 
	C305.531219,81.712822 307.092926,81.922821 308.852692,82.159454 
	C308.852692,85.611908 308.852692,89.018471 308.852692,92.641434 
	C300.578400,92.641434 292.502563,92.641434 284.088318,92.641434 
	C284.088318,89.363846 284.088318,86.113243 284.088318,82.419678 
	C285.020050,82.133423 286.325226,81.732445 287.756409,81.292740 
	C287.756409,73.131973 287.756409,65.020630 287.756409,56.646751 
	C286.523499,56.372086 285.305603,56.100761 283.935699,55.795578 
	C283.935699,52.411160 283.935699,49.119953 283.935699,45.485847 
	C290.135956,45.485847 296.356354,45.485847 302.886993,45.485847 
	C302.594513,46.271233 302.325012,46.994904 302.040771,48.124191 
z"/>
<path fill="#F6F6F6" opacity="1.000000" stroke="none" 
	d="
M31.766935,73.785004 
	C23.355619,73.785004 15.419876,73.785004 7.249867,73.785004 
	C7.249867,63.490784 7.249867,53.610321 7.249867,43.471687 
	C17.247419,43.471687 27.120781,43.471687 37.289169,43.471687 
	C37.289169,53.519352 37.289169,63.393990 37.289169,73.785011 
	C35.458565,73.785011 33.850536,73.785011 31.766935,73.785004 
z"/>
<path fill="#D4B745" opacity="1.000000" stroke="none" 
	d="
M74.078003,51.069954 
	C74.078011,58.839920 74.078011,66.120941 74.078011,73.631027 
	C63.728378,73.631027 53.948677,73.631027 43.708588,73.631027 
	C43.708588,63.760109 43.708588,53.876869 43.708588,43.557217 
	C53.451042,43.557217 63.339466,43.557217 74.077988,43.557217 
	C74.077988,45.765770 74.077988,48.173389 74.078003,51.069954 
z"/>
<path fill="#79B275" opacity="1.000000" stroke="none" 
	d="
M73.031960,109.850189 
	C63.986916,109.899277 54.941868,109.948357 45.359100,109.781029 
	C44.528477,109.336464 44.274548,109.394180 44.059593,109.737770 
	C43.773441,104.065514 43.340145,98.395622 43.249363,92.720238 
	C43.181122,88.454369 41.933273,82.347382 44.150471,80.389763 
	C46.748074,78.096283 52.529465,79.293663 56.934799,79.191978 
	C62.379608,79.066292 67.829529,79.161911 74.062233,79.161911 
	C74.062233,89.027573 74.062233,98.561401 73.793182,108.647713 
	C73.285011,109.360016 73.120956,109.576683 73.031960,109.850189 
z"/>
<path fill="#79B275" opacity="1.000000" stroke="none" 
	d="
M80.136147,44.044483 
	C82.315964,43.731876 84.492401,43.180458 86.676193,43.149658 
	C94.469009,43.039742 102.264328,43.106663 110.425514,43.106663 
	C110.425514,53.431549 110.425514,63.310383 110.425514,73.689873 
	C100.367561,73.689873 90.451454,73.689873 80.604683,73.010612 
	C80.783493,67.583481 81.047821,62.832695 80.958603,58.088558 
	C80.870491,53.403702 80.424911,48.725567 80.136147,44.044483 
z"/>
<path fill="#FAFAFA" opacity="1.000000" stroke="none" 
	d="
M58.006710,7.054394 
	C63.464088,7.054394 68.424629,7.054394 73.667435,7.054394 
	C73.667435,17.231577 73.667435,27.108669 73.667435,37.198936 
	C63.686272,37.198936 53.798832,37.198936 43.671890,37.198936 
	C43.671890,27.202438 43.671890,17.451736 43.671890,7.054394 
	C48.351650,7.054394 52.930759,7.054394 58.006710,7.054394 
z"/>
<path fill="#7AB376" opacity="1.000000" stroke="none" 
	d="
M13.044344,109.847733 
	C8.478787,110.020058 6.941442,107.425972 6.966361,103.297455 
	C7.009415,96.164192 6.994522,89.030579 7.220046,81.358643 
	C7.663095,80.525673 7.604237,80.271538 7.259580,80.057739 
	C10.452185,79.766785 13.641154,79.285286 16.838146,79.224289 
	C23.616011,79.094978 30.398058,79.184860 37.682674,79.184860 
	C37.682674,89.620674 37.682674,99.524635 36.983086,109.353363 
	C28.537109,109.468002 20.790728,109.657867 13.044344,109.847733 
z"/>
<path fill="#FAFAFA" opacity="1.000000" stroke="none" 
	d="
M7.672996,10.078011 
	C9.758153,8.833766 11.575734,7.247911 13.449622,7.178323 
	C21.241203,6.888975 29.049759,7.056680 37.210472,7.056680 
	C37.210472,17.114864 37.210472,26.978949 37.210472,37.146526 
	C27.262899,37.146526 17.372253,37.146526 7.431314,37.146526 
	C7.431314,28.272154 7.431314,19.352934 7.672996,10.078011 
z"/>
<path fill="#FAFAFA" opacity="1.000000" stroke="none" 
	d="
M90.031616,7.054914 
	C95.023102,7.054653 99.522057,7.096079 104.019867,7.041820 
	C108.109917,6.992479 110.381561,9.108834 110.473709,13.018844 
	C110.661369,20.981054 110.529869,28.950787 110.529869,37.177658 
	C100.214043,37.177658 90.313110,37.177658 80.192123,37.177658 
	C80.192123,27.206249 80.192123,17.437767 80.192123,7.054914 
	C83.327042,7.054914 86.432816,7.054914 90.031616,7.054914 
z"/>
<path fill="#79B275" opacity="1.000000" stroke="none" 
	d="
M80.185760,80.059708 
	C83.554543,79.767349 86.919121,79.303963 90.293053,79.221031 
	C95.954750,79.081863 101.623978,79.263466 107.286835,79.150276 
	C109.816788,79.099716 110.887306,79.939819 110.840157,82.592407 
	C110.718765,89.421738 111.146935,96.282135 110.609413,103.071045 
	C110.425423,105.394722 108.024231,107.542847 105.953712,109.521576 
	C99.449959,109.180603 93.628807,109.049294 87.807022,109.008286 
	C81.006737,108.960396 81.110229,108.992477 80.974464,102.335335 
	C80.822990,94.907852 80.457886,87.484726 80.185760,80.059708 
z"/>
<path fill="#86BB83" opacity="1.000000" stroke="none" 
	d="
M80.052704,80.507751 
	C80.457886,87.484726 80.822990,94.907852 80.974464,102.335335 
	C81.110229,108.992477 81.006737,108.960396 87.807022,109.008286 
	C93.628807,109.049294 99.449959,109.180603 105.595078,109.517136 
	C97.457397,109.762306 88.996025,109.762306 79.919647,109.762306 
	C79.919647,100.119331 79.919647,90.537560 80.052704,80.507751 
z"/>
<path fill="#86BB83" opacity="1.000000" stroke="none" 
	d="
M80.023094,44.498276 
	C80.424911,48.725567 80.870491,53.403702 80.958603,58.088558 
	C81.047821,62.832695 80.783493,67.583481 80.404480,72.641022 
	C80.059975,63.617821 79.985008,54.284946 80.023094,44.498276 
z"/>
<path fill="#86BB83" opacity="1.000000" stroke="none" 
	d="
M13.506750,109.906250 
	C20.790728,109.657867 28.537109,109.468002 36.604950,109.527855 
	C29.273991,109.839973 21.621572,109.902367 13.506750,109.906250 
z"/>
<path fill="#86BF82" opacity="1.000000" stroke="none" 
	d="
M7.167187,80.276810 
	C7.604237,80.271538 7.663095,80.525673 7.292893,80.892822 
	C7.149633,80.965485 7.074794,80.495888 7.167187,80.276810 
z"/>
<path fill="#86BF82" opacity="1.000000" stroke="none" 
	d="
M44.277809,109.831383 
	C44.274548,109.394180 44.528477,109.336464 44.893288,109.708038 
	C44.965191,109.851463 44.496021,109.924995 44.277809,109.831383 
z"/>
<path fill="#86BF82" opacity="1.000000" stroke="none" 
	d="
M73.288773,109.861702 
	C73.120956,109.576683 73.285011,109.360016 73.711197,109.111664 
	C73.780701,109.306503 73.663139,109.589859 73.288773,109.861702 
z"/>
<path fill="#F6F6F6" opacity="1.000000" stroke="none" 
	d="
M421.580780,65.986938 
	C418.821259,65.990532 416.511292,65.990532 413.693604,65.990532 
	C413.976105,61.893539 412.583038,57.533272 417.098053,55.354107 
	C418.291718,54.778015 421.660187,55.932804 422.051727,57.011143 
	C423.064240,59.799641 425.873016,63.066944 421.580780,65.986938 
z"/>
<path fill="#F4F4F4" opacity="1.000000" stroke="none" 
	d="
M345.240479,78.882446 
	C343.297455,80.129280 341.357361,81.882812 339.812195,81.585320 
	C338.564819,81.345161 337.039185,78.671356 336.949982,77.006798 
	C336.657745,71.555786 336.677399,66.043861 337.220459,60.619759 
	C337.378998,59.036152 339.685699,57.667610 341.007782,56.200500 
	C342.534698,57.671627 345.250641,59.048065 345.376648,60.630760 
	C345.848206,66.551643 345.472198,72.540031 345.240479,78.882446 
z"/>
<path fill="#F4F4F4" opacity="1.000000" stroke="none" 
	d="
M262.791107,62.596207 
	C262.662872,67.980011 262.818054,72.975021 262.100342,77.841301 
	C261.856812,79.492508 259.410065,80.818771 257.970123,82.293518 
	C256.568390,80.768173 254.121017,79.347626 253.955719,77.698349 
	C253.400925,72.163177 253.310593,66.515060 253.807358,60.978802 
	C253.969635,59.170269 256.192810,56.596676 257.964203,56.090591 
	C261.140778,55.183041 261.892761,58.166843 262.387451,60.708920 
	C262.482147,61.195602 262.616699,61.674530 262.791107,62.596207 
z"/>
</svg>