<svg version="1.1" id="Layer_1" xmlns="http://www.w3.org/2000/svg" xmlns:xlink="http://www.w3.org/1999/xlink" x="0px" y="0px"
	 width="100%" viewBox="0 0 500 500" enable-background="new 0 0 500 500" xml:space="preserve">
<path fill="#D7D7D7" opacity="1.000000" stroke="none" 
	d="
M1.000000,114.000000 
	C1.000000,76.356133 1.000000,38.712261 1.000000,1.034195 
	C167.542999,1.034195 334.085999,1.034195 501.000000,1.034195 
	C501.000000,37.353386 501.000000,73.708038 500.616638,110.518661 
	C495.363342,106.685219 489.429565,108.330307 483.832123,107.963486 
	C480.263397,107.729622 478.523804,109.499710 478.065765,112.707336 
	C477.344299,117.759903 476.506805,122.827888 476.301910,127.912857 
	C476.112976,132.600998 473.625214,133.086639 469.783447,133.060349 
	C450.520599,132.928497 431.255524,132.917618 411.993561,133.104446 
	C409.589661,133.127747 407.199615,134.575439 404.572021,135.087799 
	C391.071381,104.880928 368.188477,89.966629 335.325165,90.046097 
	C276.554291,90.188217 217.782776,90.051369 159.011734,90.150841 
	C154.224930,90.158943 149.374802,90.744736 144.665466,91.644798 
	C128.657730,94.704216 115.893204,103.366066 104.803658,114.917450 
	C102.565147,114.397903 100.611694,114.027687 98.657837,114.025543 
	C66.105255,113.989731 33.552624,114.000000 1.000000,114.000000 
z"/>
<path fill="#EBEBEB" opacity="1.000000" stroke="none" 
	d="
M501.000000,395.000000 
	C501.000000,430.311615 501.000000,465.623199 501.000000,500.967407 
	C334.457550,500.967407 167.915085,500.967407 1.000000,500.967407 
	C1.000000,465.979980 1.000000,430.958649 1.468657,395.468658 
	C23.921392,395.000000 45.905560,394.973450 67.889404,395.045105 
	C69.876411,395.051575 71.861351,395.690918 73.847260,396.036377 
	C73.149391,395.853943 72.451530,395.671509 71.753662,395.489075 
	C69.308502,399.023743 66.697639,402.459930 64.506447,406.145599 
	C63.719582,407.469116 63.136444,410.245178 63.835682,410.908447 
	C69.061150,415.865265 73.949532,421.985870 80.256256,424.801727 
	C89.341331,428.858063 99.468391,430.722076 109.275253,432.981354 
	C119.427467,435.320221 129.653976,437.707520 139.982925,438.814697 
	C152.983688,440.208282 166.116135,440.464417 179.201385,440.953644 
	C192.812546,441.462463 206.436218,441.975250 220.052567,441.929932 
	C242.664551,441.854706 265.275970,441.385437 287.885834,440.981628 
	C300.173126,440.762207 312.464874,439.883148 324.740082,440.104828 
	C344.758026,440.466309 364.525421,439.037323 383.926971,433.944031 
	C400.166748,429.680786 417.974701,429.475067 430.012787,414.605621 
	C434.343262,409.256653 435.330078,408.218506 430.519226,403.137878 
	C428.346130,400.842957 425.598419,399.092133 422.518646,396.618317 
	C424.267670,395.866669 425.248230,395.081055 426.232056,395.076965 
	C441.553375,395.013275 456.889374,394.678955 472.188965,395.266510 
	C477.535004,395.471802 482.405396,396.345764 487.530762,393.597595 
	C489.780609,392.391144 493.321991,393.438690 496.252625,393.717987 
	C497.861206,393.871307 499.419189,394.555298 501.000000,395.000000 
z"/>
<path fill="#E7E6E6" opacity="1.000000" stroke="none" 
	d="
M501.000000,394.531342 
	C499.419189,394.555298 497.861206,393.871307 496.252625,393.717987 
	C493.321991,393.438690 489.780609,392.391144 487.530762,393.597595 
	C482.405396,396.345764 477.535004,395.471802 472.188965,395.266510 
	C456.889374,394.678955 441.553375,395.013275 426.232056,395.076965 
	C425.248230,395.081055 424.267670,395.866669 422.518646,396.618317 
	C425.598419,399.092133 428.346130,400.842957 430.519226,403.137878 
	C435.330078,408.218506 434.343262,409.256653 430.012787,414.605621 
	C417.974701,429.475067 400.166748,429.680786 383.926971,433.944031 
	C364.525421,439.037323 344.758026,440.466309 324.740082,440.104828 
	C312.464874,439.883148 300.173126,440.762207 287.885834,440.981628 
	C265.275970,441.385437 242.664551,441.854706 220.052567,441.929932 
	C206.436218,441.975250 192.812546,441.462463 179.201385,440.953644 
	C166.116135,440.464417 152.983688,440.208282 139.982925,438.814697 
	C129.653976,437.707520 119.427467,435.320221 109.275253,432.981354 
	C99.468391,430.722076 89.341331,428.858063 80.256256,424.801727 
	C73.949532,421.985870 69.061150,415.865265 63.835682,410.908447 
	C63.136444,410.245178 63.719582,407.469116 64.506447,406.145599 
	C66.697639,402.459930 69.308502,399.023743 71.753662,395.489075 
	C72.451530,395.671509 73.149391,395.853943 73.847260,396.036377 
	C71.861351,395.690918 69.876411,395.051575 67.889404,395.045105 
	C45.905560,394.973450 23.921392,395.000000 1.468657,395.000000 
	C1.000000,363.312439 1.000000,331.624878 1.468657,299.468658 
	C27.735910,299.000000 53.534504,298.995972 79.333099,299.002808 
	C85.964287,299.004547 85.540298,299.076080 86.136208,305.681915 
	C86.632156,311.179779 88.321884,316.569946 89.532890,322.472778 
	C89.603638,329.246216 89.639046,335.554688 89.641983,341.863129 
	C89.648232,355.309296 93.561180,367.668945 101.162865,378.584869 
	C105.509644,384.826752 111.137001,390.176880 115.763634,395.958893 
	C110.777504,396.664154 106.114868,396.951324 101.676888,398.103699 
	C94.828384,399.881989 87.807693,401.561432 81.460167,404.555206 
	C74.293266,407.935394 74.415878,413.143982 81.049644,417.625214 
	C91.894852,424.951233 104.231232,427.683899 117.068352,429.351318 
	C121.875328,431.456970 126.498482,434.258545 131.367279,434.784088 
	C148.310852,436.612885 165.320175,438.047241 182.341278,438.882355 
	C199.432953,439.720947 216.568085,439.888031 233.685120,439.926544 
	C246.969833,439.956451 260.255402,439.308014 273.541718,439.011078 
	C289.824677,438.647156 306.120605,438.613159 322.388794,437.918243 
	C336.942535,437.296631 351.509949,436.358917 365.977173,434.726227 
	C370.477722,434.218353 374.670959,430.987000 379.431915,429.001709 
	C391.662140,427.980865 402.831360,424.728729 413.325195,419.262634 
	C415.040649,418.369080 416.548859,416.943970 417.910095,415.530731 
	C421.122223,412.196045 420.984131,408.275970 417.119049,405.874908 
	C413.801208,403.813812 410.100159,402.059479 406.331726,401.097321 
	C398.048615,398.982452 389.615662,397.454224 381.475342,395.413361 
	C391.843750,387.730804 398.967773,378.065521 403.869598,366.525818 
	C408.180847,356.376373 408.686249,345.733490 409.428345,334.997253 
	C415.127411,334.662994 420.395996,334.090942 425.669159,334.045685 
	C440.773468,333.916016 455.879730,333.968018 470.984924,334.027344 
	C473.949005,334.038971 476.387909,333.991486 477.668915,330.412811 
	C478.109589,329.181641 480.845825,328.187378 482.579498,328.109283 
	C488.708893,327.833252 494.858215,328.000702 501.000000,328.000000 
	C501.000000,350.020905 501.000000,372.041779 501.000000,394.531342 
z"/>
<path fill="#DEDEDE" opacity="1.000000" stroke="none" 
	d="
M404.803131,135.363144 
	C407.199615,134.575439 409.589661,133.127747 411.993561,133.104446 
	C431.255524,132.917618 450.520599,132.928497 469.783447,133.060349 
	C473.625214,133.086639 476.112976,132.600998 476.301910,127.912857 
	C476.506805,122.827888 477.344299,117.759903 478.065765,112.707336 
	C478.523804,109.499710 480.263397,107.729622 483.832123,107.963486 
	C489.429565,108.330307 495.363342,106.685219 500.616638,110.987320 
	C501.000000,150.687561 501.000000,190.375122 500.596375,230.542328 
	C495.618469,231.014633 491.024017,231.272263 486.475433,230.926651 
	C481.781067,230.569962 479.604614,231.545975 479.823608,237.036270 
	C480.094116,243.818604 477.776245,245.614120 470.941101,245.984665 
	C469.780609,246.047562 468.613983,245.999680 467.450195,245.999710 
	C451.323456,246.000153 435.193817,246.168594 419.071716,245.895248 
	C414.356628,245.815323 412.245636,247.045456 412.980743,251.940079 
	C413.592651,256.014374 412.483185,259.497589 408.888916,261.717529 
	C408.667816,260.623199 408.563263,259.811127 408.530090,258.539795 
	C408.596954,244.061996 408.592499,230.043503 408.673035,215.562637 
	C408.782715,204.294586 408.840698,193.488861 408.824249,182.683228 
	C408.800018,166.800140 409.976166,150.810394 404.803131,135.363144 
z"/>
<path fill="#DCDCDC" opacity="1.000000" stroke="none" 
	d="
M1.000000,114.468658 
	C33.552624,114.000000 66.105255,113.989731 98.657837,114.025543 
	C100.611694,114.027687 102.565147,114.397903 104.667908,115.218483 
	C100.619179,123.544228 95.497795,130.910843 92.519470,139.060623 
	C90.191277,145.431442 89.972794,152.758606 89.779640,159.687668 
	C89.303238,176.778473 89.380600,193.884705 88.823395,210.979462 
	C83.567970,210.316132 78.728752,209.128296 73.880302,209.089371 
	C49.588196,208.894272 25.293673,209.000000 1.000000,209.000000 
	C1.000000,177.645767 1.000000,146.291550 1.000000,114.468658 
z"/>
<path fill="#E4E4E4" opacity="1.000000" stroke="none" 
	d="
M409.005432,261.999817 
	C412.483185,259.497589 413.592651,256.014374 412.980743,251.940079 
	C412.245636,247.045456 414.356628,245.815323 419.071716,245.895248 
	C435.193817,246.168594 451.323456,246.000153 467.450195,245.999710 
	C468.613983,245.999680 469.780609,246.047562 470.941101,245.984665 
	C477.776245,245.614120 480.094116,243.818604 479.823608,237.036270 
	C479.604614,231.545975 481.781067,230.569962 486.475433,230.926651 
	C491.024017,231.272263 495.618469,231.014633 500.596375,231.010986 
	C501.000000,263.020905 501.000000,295.041779 501.000000,327.531342 
	C494.858215,328.000702 488.708893,327.833252 482.579498,328.109283 
	C480.845825,328.187378 478.109589,329.181641 477.668915,330.412811 
	C476.387909,333.991486 473.949005,334.038971 470.984924,334.027344 
	C455.879730,333.968018 440.773468,333.916016 425.669159,334.045685 
	C420.395996,334.090942 415.127411,334.662994 409.357849,334.532959 
	C408.762634,326.331818 408.666260,318.592224 408.608185,310.424072 
	C408.766113,293.996948 408.885773,277.998383 409.005432,261.999817 
z"/>
<path fill="#E1E1E1" opacity="1.000000" stroke="none" 
	d="
M1.000000,209.468658 
	C25.293673,209.000000 49.588196,208.894272 73.880302,209.089371 
	C78.728752,209.128296 83.567970,210.316132 88.899109,211.386292 
	C89.418800,248.534866 89.450821,285.271332 89.482834,322.007812 
	C88.321884,316.569946 86.632156,311.179779 86.136208,305.681915 
	C85.540298,299.076080 85.964287,299.004547 79.333099,299.002808 
	C53.534504,298.995972 27.735910,299.000000 1.468657,299.000000 
	C1.000000,269.312439 1.000000,239.624878 1.000000,209.468658 
z"/>
<path fill="#ED644D" opacity="1.000000" stroke="none" 
	d="
M89.532898,322.472778 
	C89.450821,285.271332 89.418800,248.534866 89.311058,211.391571 
	C89.380600,193.884705 89.303238,176.778473 89.779640,159.687668 
	C89.972794,152.758606 90.191277,145.431442 92.519470,139.060623 
	C95.497795,130.910843 100.619179,123.544228 104.952789,115.539078 
	C115.893204,103.366066 128.657730,94.704216 144.665466,91.644798 
	C149.374802,90.744736 154.224930,90.158943 159.011734,90.150841 
	C217.782776,90.051369 276.554291,90.188217 335.325165,90.046097 
	C368.188477,89.966629 391.071381,104.880928 404.572021,135.087799 
	C409.976166,150.810394 408.800018,166.800140 408.824249,182.683228 
	C408.840698,193.488861 408.782715,204.294586 408.417114,215.556824 
	C407.734924,216.000137 407.393677,215.986877 406.991455,215.635712 
	C395.788849,203.885300 384.661804,192.458435 373.465027,181.100250 
	C372.866211,180.492783 371.680511,180.463806 370.805328,180.123383 
	C370.842621,180.081223 370.913452,180.168655 370.837036,179.915115 
	C370.510406,179.417877 370.260223,179.174194 369.758087,178.711578 
	C358.452423,162.149902 341.198029,155.479416 323.620453,161.215332 
	C309.112366,165.949600 300.568878,176.382599 296.552734,190.810455 
	C291.836670,186.433853 287.396484,182.223495 282.974548,178.001953 
	C282.992859,177.990784 282.989929,178.033569 282.851013,177.786713 
	C282.382385,177.361877 282.052643,177.183899 281.449799,176.831223 
	C280.713348,176.179825 280.185455,175.750504 279.796051,175.219589 
	C265.639709,155.919754 237.925110,153.830872 220.855133,170.536591 
	C214.922852,176.342285 212.218338,183.738281 208.772598,190.880829 
	C204.614685,187.507935 200.771729,184.268814 196.954437,181.011902 
	C196.980072,180.994110 196.975555,181.056351 196.952713,180.728912 
	C196.517975,179.933914 196.106094,179.466339 195.457413,178.781601 
	C194.357208,177.345642 193.536514,176.093811 192.623779,174.913132 
	C183.798920,163.497803 171.959183,158.011948 157.805679,159.501373 
	C141.431412,161.224487 129.816574,170.126831 124.136848,185.944794 
	C120.693375,195.534836 121.521042,205.178848 124.193863,215.170441 
	C126.550079,225.352402 133.173340,231.907074 141.069550,237.844696 
	C141.430695,238.432632 141.726471,238.711624 142.010162,238.983765 
	C141.998108,238.976898 142.021896,238.953018 142.141953,239.266113 
	C143.501129,240.898941 144.741058,242.217926 145.979233,243.538559 
	C150.689529,248.562469 155.399231,253.586945 159.687927,258.723999 
	C151.601471,259.301361 144.594498,261.730377 138.386368,266.215668 
	C124.077721,276.553528 119.106033,292.427185 123.689964,312.248352 
	C125.392578,322.443329 131.278793,329.770660 139.156311,336.146729 
	C139.881943,336.607819 140.445740,336.806824 141.003418,337.004761 
	C140.997284,337.003662 140.991760,336.992371 141.103363,337.214355 
	C141.421249,337.713287 141.691132,337.896545 142.015228,337.984497 
	C142.005844,337.982849 142.031281,337.960480 142.052063,338.307648 
	C142.593338,339.477631 142.982956,340.430847 143.653580,341.104065 
	C156.960922,354.462585 170.287323,367.802185 183.664597,381.090546 
	C184.546860,381.966980 185.867477,382.402069 187.028015,383.383057 
	C188.300018,385.234436 189.427795,386.841827 190.773361,388.239594 
	C197.492371,395.219055 204.268524,402.143494 210.554657,409.124176 
	C197.766754,409.263794 185.448730,409.366516 172.660812,409.353546 
	C164.797409,409.177338 157.403931,409.116852 149.645569,408.992584 
	C147.832184,408.658844 146.383682,408.388824 144.571564,408.018158 
	C142.281143,407.549286 140.354294,407.181122 138.160721,406.588379 
	C136.585190,405.922241 135.276398,405.480682 133.643311,404.940063 
	C131.887543,404.219604 130.456085,403.598175 128.783600,402.731506 
	C126.388046,401.609161 124.233521,400.732025 122.003448,399.572693 
	C121.202240,398.731201 120.476578,398.171906 119.480141,397.402954 
	C118.202179,396.771698 117.194984,396.350098 116.187790,395.928467 
	C111.137001,390.176880 105.509644,384.826752 101.162865,378.584869 
	C93.561180,367.668945 89.648232,355.309296 89.641983,341.863129 
	C89.639046,335.554688 89.603638,329.246216 89.532898,322.472778 
z"/>
<path fill="#EC634C" opacity="1.000000" stroke="none" 
	d="
M408.569916,310.852631 
	C408.666260,318.592224 408.762634,326.331818 408.929504,334.535706 
	C408.686249,345.733490 408.180847,356.376373 403.869598,366.525818 
	C398.967773,378.065521 391.843750,387.730804 381.196381,395.510559 
	C379.349731,396.875397 378.013519,397.869904 376.381775,398.949341 
	C375.059601,399.693024 374.033051,400.351807 372.690216,401.073547 
	C371.257904,401.777832 370.141846,402.419189 368.697876,403.080322 
	C367.238159,403.708649 366.106354,404.317291 364.728638,404.937866 
	C364.482697,404.949799 364.002808,405.062988 363.683533,405.085022 
	C362.579926,405.438080 361.795532,405.769135 360.690765,406.107697 
	C359.579163,406.428741 358.787933,406.742279 357.632446,407.058350 
	C355.867249,407.424835 354.466278,407.788757 352.712189,408.133667 
	C351.228943,408.413971 350.098785,408.713318 348.502075,408.999512 
	C340.310333,409.148407 332.585083,409.310486 324.409058,409.387939 
	C312.636292,409.226868 301.314362,409.150391 289.994751,408.680237 
	C291.612885,405.774506 292.751770,402.699738 294.931152,400.852783 
	C302.382904,394.537689 310.202545,388.656830 317.877747,382.605164 
	C336.482330,367.935913 355.307678,353.534912 373.602081,338.488464 
	C384.147430,329.815247 396.376617,323.078613 404.890930,311.964966 
	C405.523499,311.139282 407.316437,311.202606 408.569916,310.852631 
z"/>
<path fill="#EBE2E0" opacity="1.000000" stroke="none" 
	d="
M379.004883,429.002441 
	C374.670959,430.987000 370.477722,434.218353 365.977173,434.726227 
	C351.509949,436.358917 336.942535,437.296631 322.388794,437.918243 
	C306.120605,438.613159 289.824677,438.647156 273.541718,439.011078 
	C260.255402,439.308014 246.969833,439.956451 233.685120,439.926544 
	C216.568085,439.888031 199.432953,439.720947 182.341278,438.882355 
	C165.320175,438.047241 148.310852,436.612885 131.367279,434.784088 
	C126.498482,434.258545 121.875328,431.456970 117.180344,429.094513 
	C117.481468,427.995026 117.741806,427.499939 118.374992,427.051056 
	C126.236473,429.057465 133.624893,431.730743 141.238632,432.800842 
	C151.178207,434.197754 161.289337,434.484955 171.340942,434.917816 
	C175.206467,435.084290 179.111282,434.338623 183.464005,434.007568 
	C191.953461,434.335052 199.977127,434.663483 208.306610,435.275146 
	C209.419434,435.704041 210.226288,435.976196 211.033401,435.976959 
	C235.790527,436.000336 260.547699,436.011566 285.304718,435.955231 
	C286.536896,435.952423 287.767639,435.327271 289.459595,434.993347 
	C297.947296,434.665894 305.974518,434.336975 314.309326,434.287842 
	C321.885529,434.381012 329.176056,433.747345 336.417938,434.103149 
	C350.405609,434.790436 363.739563,431.803772 377.177155,428.237946 
	C377.905304,428.648956 378.455109,428.825684 379.004883,429.002441 
z"/>
<path fill="#E3E2E2" opacity="1.000000" stroke="none" 
	d="
M379.431915,429.001740 
	C378.455109,428.825684 377.905304,428.648956 377.178345,427.904724 
	C377.004425,426.893097 377.007690,426.449005 377.443909,426.004456 
	C381.591644,425.323029 385.414429,424.992035 388.997955,423.885956 
	C395.803680,421.785278 402.594513,419.522644 409.118073,416.696045 
	C410.898346,415.924683 412.678619,412.892853 412.656189,410.918915 
	C412.637390,409.266266 410.282837,406.795685 408.452362,406.162750 
	C402.378357,404.062439 396.114380,402.454620 389.844116,400.998657 
	C385.522980,399.995209 381.070892,399.555847 376.677307,398.864380 
	C378.013519,397.869904 379.349731,396.875397 380.964905,395.783691 
	C389.615662,397.454224 398.048615,398.982452 406.331726,401.097321 
	C410.100159,402.059479 413.801208,403.813812 417.119049,405.874908 
	C420.984131,408.275970 421.122223,412.196045 417.910095,415.530731 
	C416.548859,416.943970 415.040649,418.369080 413.325195,419.262634 
	C402.831360,424.728729 391.662140,427.980865 379.431915,429.001740 
z"/>
<path fill="#E3E2E2" opacity="1.000000" stroke="none" 
	d="
M118.002136,427.004883 
	C117.741806,427.499939 117.481468,427.995026 117.109146,428.746887 
	C104.231232,427.683899 91.894852,424.951233 81.049644,417.625214 
	C74.415878,413.143982 74.293266,407.935394 81.460167,404.555206 
	C87.807693,401.561432 94.828384,399.881989 101.676888,398.103699 
	C106.114868,396.951324 110.777504,396.664154 115.763641,395.958862 
	C117.194984,396.350098 118.202179,396.771698 119.062180,397.589172 
	C117.817390,398.340942 116.736084,398.761536 115.619644,399.042511 
	C106.237083,401.403992 96.795258,403.557159 87.506935,406.242340 
	C85.714401,406.760559 83.676636,409.164917 83.310501,411.008698 
	C83.022888,412.457123 84.734474,414.995087 86.252365,415.996674 
	C95.842995,422.325104 106.701439,424.910919 117.995087,426.252136 
	C117.999603,426.670319 118.000870,426.837616 118.002136,427.004883 
z"/>
<path fill="#E65D47" opacity="1.000000" stroke="none" 
	d="
M408.608185,310.424072 
	C407.316437,311.202606 405.523499,311.139282 404.890930,311.964966 
	C396.376617,323.078613 384.147430,329.815247 373.602081,338.488464 
	C355.307678,353.534912 336.482330,367.935913 317.877747,382.605164 
	C310.202545,388.656830 302.382904,394.537689 294.931152,400.852783 
	C292.751770,402.699738 291.612885,405.774506 289.528320,408.720947 
	C267.037506,409.127289 245.015488,409.099243 222.995300,408.684387 
	C223.928909,406.464447 224.413727,404.092163 225.866669,402.887695 
	C233.902847,396.225525 242.167206,389.838135 250.367676,383.374725 
	C265.723907,371.271332 281.042664,359.119537 296.478821,347.118805 
	C301.541962,343.182495 306.920258,339.651459 312.510437,335.951721 
	C313.771271,336.330414 314.749878,336.571686 315.570068,337.072449 
	C332.149658,347.195038 353.990295,342.959991 365.757355,328.532135 
	C369.586609,323.837006 373.810730,318.911072 373.123779,311.619019 
	C376.061127,302.467529 375.271820,293.728363 373.376404,284.988678 
	C383.609406,277.108246 393.449707,269.195435 403.392059,261.413055 
	C404.829865,260.287598 406.757660,259.788208 408.458710,258.999084 
	C408.563263,259.811127 408.667816,260.623199 408.888916,261.717529 
	C408.885773,277.998383 408.766113,293.996948 408.608185,310.424072 
z"/>
<path fill="#DF5742" opacity="1.000000" stroke="none" 
	d="
M408.530090,258.539795 
	C406.757660,259.788208 404.829865,260.287598 403.392059,261.413055 
	C393.449707,269.195435 383.609406,277.108246 373.194885,284.689331 
	C368.666901,274.265656 361.528381,267.043793 352.001160,261.666992 
	C353.344299,259.529694 354.387665,257.398712 356.062225,256.053497 
	C365.974854,248.090408 376.036041,240.312347 386.043091,232.466675 
	C393.049652,226.973404 400.049530,221.471619 407.052399,215.973633 
	C407.393677,215.986877 407.734924,216.000137 408.332123,216.019196 
	C408.592499,230.043503 408.596954,244.061996 408.530090,258.539795 
z"/>
<path fill="#DF5742" opacity="1.000000" stroke="none" 
	d="
M312.154419,335.935059 
	C306.920258,339.651459 301.541962,343.182495 296.478821,347.118805 
	C281.042664,359.119537 265.723907,371.271332 250.367676,383.374725 
	C242.167206,389.838135 233.902847,396.225525 225.866669,402.887695 
	C224.413727,404.092163 223.928909,406.464447 222.536728,408.722473 
	C218.392395,409.127350 214.708481,409.107330 211.024567,409.087311 
	C204.268524,402.143494 197.492371,395.219055 190.773361,388.239594 
	C189.427795,386.841827 188.300018,385.234436 187.181610,383.078369 
	C188.084488,381.585205 188.782471,380.616364 189.684708,379.907562 
	C205.817398,367.233063 221.974823,354.590118 238.559586,341.942017 
	C251.560715,343.663361 263.390686,342.094940 273.472198,333.671967 
	C280.646912,327.677460 285.668762,320.321289 286.689514,310.523071 
	C286.734100,310.337128 286.916870,310.001129 287.275604,309.962463 
	C290.712494,309.281342 293.790649,308.638916 297.035217,308.274597 
	C297.442596,309.370697 297.683594,310.188660 297.705566,311.245728 
	C299.588013,316.423645 301.256012,321.614075 303.929565,326.220947 
	C306.025970,329.833435 309.366547,332.723877 312.154419,335.935059 
z"/>
<path fill="#54C0E6" opacity="1.000000" stroke="none" 
	d="
M296.828583,190.976715 
	C300.568878,176.382599 309.112366,165.949600 323.620453,161.215332 
	C341.198029,155.479416 358.452423,162.149902 369.797821,178.992310 
	C370.364136,179.717529 370.638794,179.943100 370.913452,180.168655 
	C370.913452,180.168655 370.842621,180.081223 370.864441,180.490250 
	C375.581207,190.978668 376.138336,201.370117 372.945374,212.226852 
	C372.163239,213.482101 371.677765,214.537308 371.173828,215.583603 
	C360.648712,237.436203 333.562531,244.646164 313.438293,231.155502 
	C306.219391,226.316147 302.059113,219.256332 297.926941,211.603745 
	C297.517334,204.461792 297.172974,197.719254 296.828583,190.976715 
M347.008026,179.143219 
	C339.389587,178.770721 331.757202,178.024734 324.163330,178.308670 
	C322.432220,178.373398 319.507812,181.929337 319.400848,183.995819 
	C318.893402,193.799500 319.108643,203.644363 319.198273,213.473373 
	C319.236542,217.668930 322.066833,219.399811 325.782745,219.417725 
	C329.572968,219.436005 332.151184,217.640350 332.115601,213.363281 
	C332.091125,210.423019 332.110901,207.482376 332.110901,202.943161 
	C334.611633,204.703415 336.173523,205.404831 337.173950,206.582993 
	C339.973602,209.879974 342.414673,213.482895 345.235962,216.759598 
	C348.058533,220.037842 351.847839,220.334763 355.108002,217.947037 
	C358.758209,215.273636 357.332367,211.728424 355.188751,208.665192 
	C353.416138,206.132065 351.410767,203.761765 349.557831,201.382629 
	C358.395203,192.707260 357.575165,184.543579 347.008026,179.143219 
z"/>
<path fill="#A391C3" opacity="1.000000" stroke="none" 
	d="
M123.904770,312.012756 
	C119.106033,292.427185 124.077721,276.553528 138.386368,266.215668 
	C144.594498,261.730377 151.601471,259.301361 160.119019,258.811981 
	C165.647537,259.515015 170.323715,260.242889 175.288788,261.167603 
	C183.009735,264.266418 188.691177,269.444794 193.892029,275.698181 
	C200.426407,286.165283 202.037735,297.169556 199.601807,309.103271 
	C198.944260,310.260590 198.483490,311.147736 198.130447,312.075897 
	C188.841568,336.496643 159.028564,345.101257 137.898697,329.769897 
	C131.412064,325.063354 127.978310,318.389313 123.904770,312.012756 
M173.830322,314.485565 
	C182.267014,308.125244 181.853333,299.223785 180.063248,290.426453 
	C178.384811,282.177795 171.917618,278.523376 164.136505,277.515411 
	C159.388275,276.900299 154.498062,277.036865 149.696198,277.294159 
	C146.161957,277.483551 143.878555,279.486023 143.893890,283.434448 
	C143.931351,293.086060 143.696625,302.746582 144.090363,312.382263 
	C144.168060,314.283783 146.502579,317.624786 147.915039,317.688995 
	C156.435165,318.076111 165.260132,319.946045 173.830322,314.485565 
z"/>
<path fill="#FF8469" opacity="1.000000" stroke="none" 
	d="
M209.087570,191.014572 
	C212.218338,183.738281 214.922852,176.342285 220.855133,170.536591 
	C237.925110,153.830872 265.639709,155.919754 279.796051,175.219589 
	C280.185455,175.750504 280.713348,176.179825 281.615173,177.062073 
	C282.365784,177.656281 282.677856,177.844925 282.989929,178.033569 
	C282.989929,178.033569 282.992859,177.990784 282.955505,178.384430 
	C283.954407,181.572342 285.060120,184.343124 286.014282,187.165161 
	C289.192719,196.565826 288.184296,205.820694 284.664581,215.187805 
	C283.515411,216.797745 282.576752,218.170685 281.738708,219.602524 
	C273.874207,233.038635 256.137024,240.462036 240.945724,237.255524 
	C226.291306,234.162354 217.167648,224.940750 210.945435,211.612366 
	C210.286469,204.488617 209.687012,197.751602 209.087570,191.014572 
M267.132233,188.790039 
	C263.149719,179.666611 254.097900,175.260712 243.712936,177.390839 
	C234.018539,179.379318 228.942413,185.845032 228.905365,196.267853 
	C228.896484,198.763962 228.829163,201.264221 228.942352,203.755615 
	C229.364975,213.056534 236.404480,219.655807 246.367844,220.165558 
	C257.992554,220.760284 266.676208,215.312241 267.738861,205.953018 
	C268.349030,200.578888 267.545502,195.044235 267.132233,188.790039 
z"/>
<path fill="#E989B8" opacity="1.000000" stroke="none" 
	d="
M124.235802,214.782913 
	C121.521042,205.178848 120.693375,195.534836 124.136848,185.944794 
	C129.816574,170.126831 141.431412,161.224487 157.805679,159.501373 
	C171.959183,158.011948 183.798920,163.497803 192.623779,174.913132 
	C193.536514,176.093811 194.357208,177.345642 195.555481,179.081863 
	C196.252075,180.084976 196.613815,180.570663 196.975555,181.056351 
	C196.975555,181.056351 196.980072,180.994110 196.989059,181.390717 
	C200.940872,190.859192 201.521896,200.269562 199.636993,210.073578 
	C199.369980,210.559540 199.295395,210.880722 199.194550,211.496658 
	C199.101166,212.180145 199.034042,212.568863 198.664490,213.118347 
	C197.503448,214.685150 196.565277,216.049225 195.798141,217.503525 
	C183.779251,240.288406 152.526047,245.113190 134.349304,226.839645 
	C130.663254,223.133957 127.591019,218.817688 124.235802,214.782913 
M149.843063,201.787628 
	C149.461884,202.580856 149.080688,203.374084 148.415726,204.757828 
	C146.790115,198.095459 145.452301,192.095413 143.839874,186.170059 
	C142.580032,181.540436 138.998001,179.588058 134.690994,180.851074 
	C130.127441,182.189331 129.428757,185.300430 130.596619,189.458694 
	C132.980682,197.947311 135.185272,206.486343 137.569901,214.974808 
	C139.336792,221.264282 142.086273,223.256699 148.327576,223.091156 
	C154.044296,222.939514 156.789856,220.607788 158.251328,214.536636 
	C159.201965,210.587631 160.053391,206.614731 160.949249,202.652542 
	C162.765015,207.113159 163.717728,211.484528 164.763428,215.833527 
	C165.940857,220.730377 169.132370,222.986176 174.143356,223.118301 
	C179.225616,223.252319 183.132736,221.439804 184.614624,216.450439 
	C187.408478,207.043793 189.991821,197.567337 192.359406,188.044510 
	C193.499649,183.458237 189.794632,179.853745 185.105392,180.525650 
	C181.313248,181.069016 179.360504,183.484726 178.515747,187.083740 
	C177.170990,192.812820 175.728622,198.518982 174.327560,204.234848 
	C172.228134,198.554688 171.100601,192.940506 169.864243,187.350372 
	C168.860962,182.814056 165.783325,180.430344 161.298111,180.464935 
	C156.876450,180.499023 153.740189,182.596283 152.860703,187.372116 
	C152.017883,191.948975 150.934891,196.481598 149.843063,201.787628 
z"/>
<path fill="#D8513D" opacity="1.000000" stroke="none" 
	d="
M238.126938,341.940369 
	C221.974823,354.590118 205.817398,367.233063 189.684708,379.907562 
	C188.782471,380.616364 188.084488,381.585205 187.137817,382.737732 
	C185.867477,382.402069 184.546860,381.966980 183.664597,381.090546 
	C170.287323,367.802185 156.960922,354.462585 143.653580,341.104065 
	C142.982956,340.430847 142.593338,339.477631 142.420807,338.349365 
	C152.241364,342.259827 161.952866,344.080872 172.176788,341.068787 
	C186.609863,336.816650 195.246094,326.856476 200.286194,312.948120 
	C203.686646,311.274384 206.731277,309.634033 209.886719,308.324524 
	C210.127579,309.340851 210.257599,310.026276 210.282150,311.108887 
	C213.231720,317.602417 215.168427,324.748291 219.641129,329.514313 
	C224.593506,334.791443 231.865234,337.891968 238.126938,341.940369 
z"/>
<path fill="#DA533F" opacity="1.000000" stroke="none" 
	d="
M373.233459,212.022659 
	C376.138336,201.370117 375.581207,190.978668 370.827148,180.532410 
	C371.680511,180.463806 372.866211,180.492783 373.465027,181.100250 
	C384.661804,192.458435 395.788849,203.885300 406.991455,215.635712 
	C400.049530,221.471619 393.049652,226.973404 386.043091,232.466675 
	C376.036041,240.312347 365.974854,248.090408 356.062225,256.053497 
	C354.387665,257.398712 353.344299,259.529694 351.620850,261.613098 
	C344.901489,260.961121 338.552368,259.097870 332.243774,259.226349 
	C321.513397,259.444855 312.100037,264.198578 305.463867,272.505859 
	C297.270142,282.762939 294.107635,294.803925 296.868805,307.996460 
	C293.790649,308.638916 290.712494,309.281342 287.270264,309.517578 
	C288.311188,299.947418 288.162262,290.904999 285.078247,281.899170 
	C286.710724,279.831482 287.737061,277.579529 289.459747,276.192322 
	C299.778839,267.882843 310.309418,259.836395 320.654022,251.557999 
	C323.950806,248.919708 326.896332,245.842529 330.466187,242.953278 
	C345.033752,244.178299 356.759521,239.435104 365.805817,228.587509 
	C369.767517,223.837006 373.859650,218.928787 373.233459,212.022659 
z"/>
<path fill="#D24C39" opacity="1.000000" stroke="none" 
	d="
M284.921753,214.978119 
	C288.184296,205.820694 289.192719,196.565826 286.014282,187.165161 
	C285.060120,184.343124 283.954407,181.572342 282.937195,178.395599 
	C287.396484,182.223495 291.836670,186.433853 296.552734,190.810455 
	C297.172974,197.719254 297.517334,204.461792 297.689941,211.825531 
	C297.633698,213.229904 297.539124,214.128983 297.897308,214.778244 
	C301.252319,220.859695 304.684845,226.898331 307.774902,233.094986 
	C302.191986,237.220062 296.828400,241.074326 291.689911,245.208298 
	C283.988770,251.403915 276.445648,257.795959 268.484680,264.031738 
	C260.748505,262.128754 253.363068,260.298492 245.990738,258.051361 
	C246.743454,256.248199 247.169815,254.495560 248.281815,253.544907 
	C251.522995,250.774048 255.134460,248.436996 258.384552,245.675415 
	C259.300507,244.897095 259.472321,243.242966 260.206848,241.720947 
	C267.698547,238.785522 274.019440,234.662109 278.826416,228.579941 
	C281.955841,224.620331 286.077209,220.930115 284.921753,214.978119 
z"/>
<path fill="#C94231" opacity="1.000000" stroke="none" 
	d="
M199.829422,209.908813 
	C201.521896,200.269562 200.940872,190.859192 196.963409,181.408508 
	C200.771729,184.268814 204.614685,187.507935 208.772598,190.880829 
	C209.687012,197.751602 210.286469,204.488617 210.709534,211.840576 
	C212.023529,216.633636 213.513947,220.811798 214.851349,225.288879 
	C213.545715,226.785248 212.512360,228.133102 211.221741,229.156525 
	C200.052963,238.013062 188.780762,246.740768 177.708115,255.715057 
	C176.306320,256.851196 175.878799,259.189423 174.999878,260.970734 
	C170.323715,260.242889 165.647537,259.515015 160.540253,258.699188 
	C155.399231,253.586945 150.689529,248.562469 145.979233,243.538559 
	C144.741058,242.217926 143.501129,240.898941 142.533386,239.231842 
	C144.228851,239.308090 145.686737,239.642746 147.071747,240.169113 
	C160.688995,245.344223 173.413437,243.697296 185.019333,234.907104 
	C192.331192,229.369186 197.705078,222.425110 198.966919,212.957596 
	C199.034042,212.568863 199.101166,212.180145 199.380905,211.327499 
	C199.672165,210.545334 199.750793,210.227066 199.829422,209.908813 
z"/>
<path fill="#CE767D" opacity="1.000000" stroke="none" 
	d="
M199.930359,312.981476 
	C195.246094,326.856476 186.609863,336.816650 172.176788,341.068787 
	C161.952866,344.080872 152.241364,342.259827 142.400009,338.002197 
	C142.031281,337.960480 142.005844,337.982849 141.910492,337.758148 
	C141.597733,337.266296 141.323273,337.085938 140.991760,336.992371 
	C140.991760,336.992371 140.997284,337.003662 140.821198,336.767517 
	C140.094894,336.315826 139.544693,336.100250 138.994492,335.884644 
	C131.278793,329.770660 125.392578,322.443329 123.689964,312.248352 
	C127.978310,318.389313 131.412064,325.063354 137.898697,329.769897 
	C159.028564,345.101257 188.841568,336.496643 198.130447,312.075897 
	C198.483490,311.147736 198.944260,310.260590 199.668274,309.514832 
	C199.964584,310.777405 199.947479,311.879456 199.930359,312.981476 
z"/>
<path fill="#EA7178" opacity="1.000000" stroke="none" 
	d="
M198.664490,213.118347 
	C197.705078,222.425110 192.331192,229.369186 185.019333,234.907104 
	C173.413437,243.697296 160.688995,245.344223 147.071747,240.169113 
	C145.686737,239.642746 144.228851,239.308090 142.413330,238.918762 
	C142.021896,238.953018 141.998108,238.976898 141.929291,238.691193 
	C141.575043,238.115570 141.289612,237.825684 141.004181,237.535782 
	C133.173340,231.907074 126.550079,225.352402 124.193863,215.170441 
	C127.591019,218.817688 130.663254,223.133957 134.349304,226.839645 
	C152.526047,245.113190 183.779251,240.288406 195.798141,217.503525 
	C196.565277,216.049225 197.503448,214.685150 198.664490,213.118347 
z"/>
<path fill="#645F5E" opacity="1.000000" stroke="none" 
	d="
M210.554657,409.124176 
	C214.708481,409.107330 218.392395,409.127350 222.534897,409.109253 
	C245.015488,409.099243 267.037506,409.127289 289.525970,409.114624 
	C301.314362,409.150391 312.636292,409.226868 324.314911,409.701172 
	C323.109192,410.398926 321.546783,410.698853 319.517334,410.998657 
	C271.705261,410.998657 224.360260,410.998718 176.665955,410.997803 
	C175.254684,410.487640 174.192703,409.978455 173.130722,409.469269 
	C185.448730,409.366516 197.766754,409.263794 210.554657,409.124176 
z"/>
<path fill="#DCDCDC" opacity="1.000000" stroke="none" 
	d="
M117.991852,426.001221 
	C106.701439,424.910919 95.842995,422.325104 86.252365,415.996674 
	C84.734474,414.995087 83.022888,412.457123 83.310501,411.008698 
	C83.676636,409.164917 85.714401,406.760559 87.506935,406.242340 
	C96.795258,403.557159 106.237083,401.403992 115.619644,399.042511 
	C116.736084,398.761536 117.817390,398.340942 119.332947,397.798828 
	C120.476578,398.171906 121.202240,398.731201 121.893150,399.968658 
	C120.210915,401.097778 118.577385,401.609985 116.913544,401.989227 
	C109.270576,403.731445 101.500565,405.042603 94.013458,407.296753 
	C89.215439,408.741302 88.934387,412.452148 93.041718,415.296570 
	C95.309387,416.866943 97.951424,418.090759 100.600784,418.878876 
	C108.014801,421.084473 115.520470,422.981964 122.730209,425.266663 
	C120.977585,425.688599 119.484718,425.844910 117.991852,426.001221 
z"/>
<path fill="#CFCCCC" opacity="1.000000" stroke="none" 
	d="
M122.989975,425.001007 
	C115.520470,422.981964 108.014801,421.084473 100.600784,418.878876 
	C97.951424,418.090759 95.309387,416.866943 93.041718,415.296570 
	C88.934387,412.452148 89.215439,408.741302 94.013458,407.296753 
	C101.500565,405.042603 109.270576,403.731445 116.913544,401.989227 
	C118.577385,401.609985 120.210915,401.097778 121.968697,400.250854 
	C124.233521,400.732025 126.388046,401.609161 128.482224,403.014130 
	C120.279060,404.694336 112.094910,405.629456 104.024887,407.164459 
	C102.195549,407.512421 100.762291,409.942627 99.146713,411.414368 
	C100.534019,412.921814 101.685226,415.347900 103.350029,415.775818 
	C110.139984,417.521088 117.087067,418.655060 124.052811,420.350983 
	C125.754135,421.458893 127.378899,422.230072 128.890533,423.257294 
	C128.520355,424.009674 128.263290,424.505981 127.752472,425.003479 
	C127.329590,425.008636 127.160461,425.012604 126.591415,425.012115 
	C125.124321,425.005432 124.057152,425.003204 122.989975,425.001007 
z"/>
<path fill="#BBB8B7" opacity="1.000000" stroke="none" 
	d="
M123.976257,420.014252 
	C117.087067,418.655060 110.139984,417.521088 103.350029,415.775818 
	C101.685226,415.347900 100.534019,412.921814 99.146713,411.414368 
	C100.762291,409.942627 102.195549,407.512421 104.024887,407.164459 
	C112.094910,405.629456 120.279060,404.694336 128.723267,403.259338 
	C130.456085,403.598175 131.887543,404.219604 133.341064,405.210388 
	C132.389908,405.715393 131.416061,405.846680 130.443558,405.987366 
	C124.103325,406.904236 117.742104,407.705719 111.442604,408.847565 
	C110.284584,409.057526 109.377258,410.650543 108.354210,411.605164 
	C109.204071,412.447327 109.921005,413.775635 110.926003,414.050415 
	C116.273094,415.512329 121.708740,416.647278 127.075485,418.042511 
	C128.471222,418.405365 129.729904,419.295441 130.608276,419.962921 
	C128.102097,419.993073 126.039177,420.003662 123.976257,420.014252 
z"/>
<path fill="#A9A19F" opacity="1.000000" stroke="none" 
	d="
M131.051529,419.943359 
	C129.729904,419.295441 128.471222,418.405365 127.075485,418.042511 
	C121.708740,416.647278 116.273094,415.512329 110.926003,414.050415 
	C109.921005,413.775635 109.204071,412.447327 108.354210,411.605164 
	C109.377258,410.650543 110.284584,409.057526 111.442604,408.847565 
	C117.742104,407.705719 124.103325,406.904236 130.443558,405.987366 
	C131.416061,405.846680 132.389908,405.715393 133.665375,405.309448 
	C135.276398,405.480682 136.585190,405.922241 137.689178,406.647827 
	C132.252625,407.625336 127.010864,408.254761 121.798332,409.070892 
	C120.853889,409.218750 119.236794,410.257050 119.301689,410.667419 
	C119.478058,411.782806 120.154045,413.152069 121.068893,413.735168 
	C122.264984,414.497467 123.862213,414.837250 125.318649,414.950684 
	C134.860764,415.693665 144.411453,416.326538 154.087982,417.207458 
	C154.428574,417.683594 154.692322,417.876953 155.003616,418.255859 
	C154.995605,418.682800 154.991852,418.853577 154.521973,419.015411 
	C148.702637,419.325867 143.349426,419.645264 137.560730,419.966736 
	C135.100677,419.960358 133.076096,419.951843 131.051529,419.943359 
z"/>
<path fill="#968B8A" opacity="1.000000" stroke="none" 
	d="
M153.959351,416.995392 
	C144.411453,416.326538 134.860764,415.693665 125.318649,414.950684 
	C123.862213,414.837250 122.264984,414.497467 121.068893,413.735168 
	C120.154045,413.152069 119.478058,411.782806 119.301689,410.667419 
	C119.236794,410.257050 120.853889,409.218750 121.798332,409.070892 
	C127.010864,408.254761 132.252625,407.625336 137.955902,406.872437 
	C140.354294,407.181122 142.281143,407.549286 144.274353,408.266571 
	C140.605255,409.194305 136.869812,409.772949 133.134354,410.351593 
	C133.123093,411.031494 133.111832,411.711395 133.100555,412.391296 
	C139.764038,414.942810 146.884033,414.966888 154.138016,415.234222 
	C154.597717,415.795776 154.917221,416.148346 155.236740,416.500946 
	C154.810944,416.665771 154.385147,416.830566 153.959351,416.995392 
z"/>
<path fill="#7B6C6A" opacity="1.000000" stroke="none" 
	d="
M172.660812,409.353546 
	C174.192703,409.978455 175.254684,410.487640 176.660583,411.331543 
	C177.003799,412.111237 177.003128,412.556213 177.001312,413.332397 
	C176.999924,414.105042 176.999649,414.546478 176.531219,414.995483 
	C170.050140,414.992065 164.037231,414.981110 157.918030,414.593719 
	C155.977737,413.810883 154.150864,413.107605 152.308136,413.063293 
	C149.031708,412.984589 148.512299,411.691193 150.010437,409.056335 
	C157.403931,409.116852 164.797409,409.177338 172.660812,409.353546 
z"/>
<path fill="#887A78" opacity="1.000000" stroke="none" 
	d="
M149.645569,408.992584 
	C148.512299,411.691193 149.031708,412.984589 152.308136,413.063293 
	C154.150864,413.107605 155.977737,413.810883 157.514847,414.607819 
	C156.144577,415.007324 155.071213,415.016296 153.997833,415.025269 
	C146.884033,414.966888 139.764038,414.942810 133.100555,412.391296 
	C133.111832,411.711395 133.123093,411.031494 133.134354,410.351593 
	C136.869812,409.772949 140.605255,409.194305 144.637939,408.367249 
	C146.383682,408.388824 147.832184,408.658844 149.645569,408.992584 
z"/>
<path fill="#D8513D" opacity="1.000000" stroke="none" 
	d="
M139.156311,336.146729 
	C139.544693,336.100250 140.094894,336.315826 140.827316,336.768616 
	C140.445740,336.806824 139.881943,336.607819 139.156311,336.146729 
z"/>
<path fill="#C94231" opacity="1.000000" stroke="none" 
	d="
M196.952713,180.728912 
	C196.613815,180.570663 196.252075,180.084976 195.792267,179.299026 
	C196.106094,179.466339 196.517975,179.933914 196.952713,180.728912 
z"/>
<path fill="#D24C39" opacity="1.000000" stroke="none" 
	d="
M282.851013,177.786713 
	C282.677856,177.844925 282.365784,177.656281 281.888306,177.236786 
	C282.052643,177.183899 282.382385,177.361877 282.851013,177.786713 
z"/>
<path fill="#DA533F" opacity="1.000000" stroke="none" 
	d="
M370.837036,179.915115 
	C370.638794,179.943100 370.364136,179.717529 370.049744,179.211227 
	C370.260223,179.174194 370.510406,179.417877 370.837036,179.915115 
z"/>
<path fill="#C94231" opacity="1.000000" stroke="none" 
	d="
M141.069550,237.844696 
	C141.289612,237.825684 141.575043,238.115570 141.941345,238.698059 
	C141.726471,238.711624 141.430695,238.432632 141.069550,237.844696 
z"/>
<path fill="#D8513D" opacity="1.000000" stroke="none" 
	d="
M141.103363,337.214355 
	C141.323273,337.085938 141.597733,337.266296 141.919876,337.759796 
	C141.691132,337.896545 141.421249,337.713287 141.103363,337.214355 
z"/>
<path fill="#DAD9D9" opacity="1.000000" stroke="none" 
	d="
M376.381744,398.949341 
	C381.070892,399.555847 385.522980,399.995209 389.844116,400.998657 
	C396.114380,402.454620 402.378357,404.062439 408.452362,406.162750 
	C410.282837,406.795685 412.637390,409.266266 412.656189,410.918915 
	C412.678619,412.892853 410.898346,415.924683 409.118073,416.696045 
	C402.594513,419.522644 395.803680,421.785278 388.997955,423.885956 
	C385.414429,424.992035 381.591644,425.323029 377.042267,426.002686 
	C375.137604,426.001740 374.067596,426.002075 372.998749,425.748413 
	C373.000366,425.325012 373.000793,425.155670 373.245087,424.700989 
	C374.708466,423.952179 375.897858,423.374359 377.152405,423.044067 
	C384.945709,420.992065 392.840515,419.266083 400.500671,416.806152 
	C402.638275,416.119751 405.050049,413.526001 405.507721,411.411438 
	C405.779602,410.155426 402.750977,407.594391 400.725616,406.576935 
	C398.014740,405.215088 394.880615,404.547577 391.852814,403.995789 
	C385.597107,402.855774 379.291565,401.989471 373.006500,401.010590 
	C374.033051,400.351807 375.059601,399.693024 376.381744,398.949341 
z"/>
<path fill="#CFCCCC" opacity="1.000000" stroke="none" 
	d="
M372.690216,401.073547 
	C379.291565,401.989471 385.597107,402.855774 391.852814,403.995789 
	C394.880615,404.547577 398.014740,405.215088 400.725616,406.576935 
	C402.750977,407.594391 405.779602,410.155426 405.507721,411.411438 
	C405.050049,413.526001 402.638275,416.119751 400.500671,416.806152 
	C392.840515,419.266083 384.945709,420.992065 377.152405,423.044067 
	C375.897858,423.374359 374.708466,423.952179 372.844330,424.704163 
	C371.131104,424.995941 370.062500,424.999146 368.996704,424.663696 
	C369.000458,423.873138 369.001373,423.421265 369.255981,422.705627 
	C377.452850,420.328308 385.432068,418.337433 393.315094,416.019531 
	C395.424286,415.399384 397.239868,413.780762 400.147919,412.050751 
	C397.190765,409.787994 395.512573,407.613068 393.413086,407.071533 
	C388.027710,405.682495 382.455200,405.018982 376.596130,404.052277 
	C375.153961,404.383881 374.073212,404.728638 372.620636,405.054138 
	C371.505005,405.009338 370.761230,404.983765 369.908844,404.712708 
	C369.542114,403.998322 369.283936,403.529449 369.025787,403.060547 
	C370.141846,402.419189 371.257904,401.777832 372.690216,401.073547 
z"/>
<path fill="#7B6C6A" opacity="1.000000" stroke="none" 
	d="
M319.984375,410.998779 
	C321.546783,410.698853 323.109192,410.398926 324.765747,409.785767 
	C332.585083,409.310486 340.310333,409.148407 348.508270,409.405304 
	C347.929016,410.880676 346.981964,412.079834 345.795013,412.952728 
	C344.647522,413.796631 343.252838,414.304413 341.501953,414.968445 
	C333.696716,414.683167 326.356262,414.389282 319.010376,413.821869 
	C319.002045,413.365967 318.999176,413.183594 319.231232,412.823853 
	C319.638885,412.097260 319.811615,411.548035 319.984375,410.998779 
z"/>
<path fill="#887A78" opacity="1.000000" stroke="none" 
	d="
M341.966736,414.959839 
	C343.252838,414.304413 344.647522,413.796631 345.795013,412.952728 
	C346.981964,412.079834 347.929016,410.880676 348.974792,409.418457 
	C350.098785,408.713318 351.228943,408.413971 352.963043,408.358551 
	C355.047943,408.408386 356.528839,408.214325 358.381409,408.018707 
	C359.496582,408.028076 360.240112,408.038971 361.073822,408.402283 
	C362.754852,409.570190 364.345734,410.385651 365.936584,411.201141 
	C365.959534,411.675110 365.982483,412.149109 366.005432,412.623108 
	C363.961304,413.081787 361.887024,413.438293 359.882385,414.030579 
	C358.199524,414.527771 356.597870,415.299835 354.568176,415.956787 
	C352.128571,415.663544 350.081085,415.363678 347.654633,415.042542 
	C346.517944,415.020569 345.760193,415.019806 344.623291,415.015930 
	C343.484985,414.995148 342.725830,414.977478 341.966736,414.959839 
z"/>
<path fill="#C1BCBC" opacity="1.000000" stroke="none" 
	d="
M368.697876,403.080292 
	C369.283936,403.529449 369.542114,403.998322 369.688477,404.869415 
	C369.385590,405.571381 369.194519,405.871124 368.604309,406.128235 
	C367.136810,406.058258 366.068390,406.031006 364.999817,405.734131 
	C364.991272,405.284943 364.982910,405.105408 364.974548,404.925903 
	C366.106354,404.317291 367.238159,403.708649 368.697876,403.080292 
z"/>
<path fill="#968B8A" opacity="1.000000" stroke="none" 
	d="
M358.009766,408.020264 
	C356.528839,408.214325 355.047943,408.408386 353.316162,408.377594 
	C354.466278,407.788757 355.867249,407.424835 357.635864,407.299316 
	C358.003540,407.537720 358.009766,408.020264 358.009766,408.020264 
z"/>
<path fill="#A79593" opacity="1.000000" stroke="none" 
	d="
M358.381409,408.018738 
	C358.009766,408.020264 358.003540,407.537720 358.000122,407.296753 
	C358.787933,406.742279 359.579163,406.428741 360.687134,406.335083 
	C361.003845,406.554932 360.998779,407.010620 360.996399,407.270386 
	C360.990570,407.703430 360.987091,407.876648 360.983643,408.049866 
	C360.240112,408.038971 359.496582,408.028076 358.381409,408.018738 
z"/>
<path fill="#A9A19F" opacity="1.000000" stroke="none" 
	d="
M360.998779,407.010620 
	C360.998779,407.010620 361.003845,406.554932 361.007507,406.327576 
	C361.795532,405.769135 362.579926,405.438080 363.679626,405.346619 
	C363.991760,405.761383 363.988586,405.936554 363.762634,406.344543 
	C362.692841,406.721771 361.845795,406.866211 360.998779,407.010620 
z"/>
<path fill="#B4B0B0" opacity="1.000000" stroke="none" 
	d="
M363.985413,406.111755 
	C363.988586,405.936554 363.991760,405.761383 363.998871,405.324585 
	C364.002808,405.062988 364.482697,404.949799 364.728638,404.937866 
	C364.982910,405.105408 364.991272,405.284943 364.746460,405.763641 
	C364.323944,406.079132 364.154663,406.095459 363.985413,406.111755 
z"/>
<path fill="#E9D1CE" opacity="1.000000" stroke="none" 
	d="
M208.000778,434.991943 
	C199.977127,434.663483 191.953461,434.335052 183.463989,433.673706 
	C182.996948,432.895905 182.995728,432.451019 183.447693,432.003265 
	C187.267242,431.667969 190.633621,431.335510 194.399719,431.002289 
	C195.866302,431.002045 196.933151,431.002533 198.217239,431.253082 
	C199.290665,431.667358 200.146835,431.831635 201.335495,431.996765 
	C202.111084,431.997192 202.554199,431.996765 203.331146,431.997955 
	C204.110718,431.998779 204.556473,431.997925 205.409760,431.993744 
	C214.624466,431.992645 223.431610,431.996429 232.238770,431.996796 
	C252.158356,431.997681 272.077942,431.996857 292.331970,431.998169 
	C293.111816,431.998535 293.557251,431.997437 294.334808,431.997131 
	C295.110382,431.997406 295.553864,431.996887 296.332886,431.993866 
	C297.445618,431.661957 298.222809,431.332489 299.399719,431.002319 
	C300.866302,431.002106 301.933136,431.002563 303.300110,431.280487 
	C307.068848,431.707306 310.537476,431.856689 314.005127,432.339691 
	C314.003357,433.118225 314.002533,433.563141 314.001709,434.008057 
	C305.974518,434.336975 297.947296,434.665894 289.151672,434.713562 
	C287.575714,434.289093 286.768280,434.021576 285.960571,434.020844 
	C261.207825,433.997955 236.455002,433.987000 211.702347,434.042633 
	C210.467789,434.045410 209.234604,434.661438 208.000778,434.991943 
z"/>
<path fill="#E9D9D6" opacity="1.000000" stroke="none" 
	d="
M182.994507,432.006104 
	C182.995728,432.451019 182.996948,432.895905 182.998184,433.674683 
	C179.111282,434.338623 175.206467,435.084290 171.340942,434.917816 
	C161.289337,434.484955 151.178207,434.197754 141.238632,432.800842 
	C133.624893,431.730743 126.236473,429.057465 118.374985,427.051056 
	C118.000870,426.837616 117.999603,426.670319 117.995087,426.252136 
	C119.484718,425.844910 120.977585,425.688599 122.730209,425.266663 
	C124.057152,425.003204 125.124321,425.005432 126.669952,425.365417 
	C134.907761,429.954376 143.245590,431.460419 152.334381,430.999054 
	C153.111771,430.998260 153.555893,430.997314 154.268082,431.262756 
	C156.689865,431.356415 158.843552,431.183716 161.413345,431.009827 
	C163.216385,431.010651 164.603333,431.012756 166.096588,431.397400 
	C170.135315,431.854919 174.067719,431.929871 178.416443,432.004028 
	C180.220001,432.004211 181.607254,432.005157 182.994507,432.006104 
z"/>
<path fill="#E9D9D6" opacity="1.000000" stroke="none" 
	d="
M314.309326,434.287842 
	C314.002533,433.563141 314.003357,433.118225 314.421051,432.338531 
	C316.225311,432.004089 317.612640,432.004456 319.295258,432.279724 
	C322.807831,432.515106 326.421600,434.905640 329.454651,431.015625 
	C332.266083,431.011688 334.634003,431.009888 337.259064,431.268005 
	C339.343903,431.350708 341.171600,431.173492 343.331940,430.996399 
	C344.108124,430.996094 344.551605,430.995605 345.454468,430.997375 
	C351.590302,430.175537 357.287994,429.472382 362.935333,428.482117 
	C366.329987,427.886841 369.646118,426.844086 372.997559,426.002441 
	C374.067596,426.002075 375.137604,426.001740 376.609314,426.003113 
	C377.007690,426.449005 377.004425,426.893097 376.999939,427.670441 
	C363.739563,431.803772 350.405609,434.790436 336.417938,434.103149 
	C329.176056,433.747345 321.885529,434.381012 314.309326,434.287842 
z"/>
<path fill="#E9D9D6" opacity="1.000000" stroke="none" 
	d="
M208.306610,435.275146 
	C209.234604,434.661438 210.467789,434.045410 211.702347,434.042633 
	C236.455002,433.987000 261.207825,433.997955 285.960571,434.020844 
	C286.768280,434.021576 287.575714,434.289093 288.691162,434.712097 
	C287.767639,435.327271 286.536896,435.952423 285.304718,435.955231 
	C260.547699,436.011566 235.790527,436.000336 211.033401,435.976959 
	C210.226288,435.976196 209.419434,435.704041 208.306610,435.275146 
z"/>
<path fill="#FFCE55" opacity="1.000000" stroke="none" 
	d="
M297.035217,308.274597 
	C294.107635,294.803925 297.270142,282.762939 305.463867,272.505859 
	C312.100037,264.198578 321.513397,259.444855 332.243774,259.226349 
	C338.552368,259.097870 344.901489,260.961121 351.612671,261.982422 
	C361.528381,267.043793 368.666901,274.265656 372.834930,284.698853 
	C375.271820,293.728363 376.061127,302.467529 372.842163,311.817139 
	C371.872223,313.573273 371.174194,314.711823 370.612762,315.914185 
	C359.719360,339.243103 328.134186,343.633789 311.649994,328.906158 
	C306.141327,323.984528 302.447815,317.031250 297.924591,311.006653 
	C297.683594,310.188660 297.442596,309.370697 297.035217,308.274597 
M319.308044,283.250092 
	C319.287537,292.745300 319.200348,302.241058 319.273560,311.735535 
	C319.312408,316.774048 321.252838,318.785431 326.192139,318.866302 
	C333.686707,318.989044 341.185669,318.964874 348.681000,318.868439 
	C352.574493,318.818359 355.076355,316.898651 355.001862,312.762054 
	C354.931885,308.875427 352.477112,307.130676 348.824890,307.022888 
	C344.829987,306.904938 340.827393,307.042938 336.832794,306.919159 
	C335.444916,306.876129 334.070953,306.384308 332.690613,306.097473 
	C333.381714,304.539520 334.029114,303.959015 334.701538,303.928436 
	C337.528229,303.799896 340.369446,303.951935 343.192047,303.781342 
	C346.547119,303.578491 349.043030,302.096039 349.075836,298.349976 
	C349.109314,294.527222 346.608704,293.164551 343.195953,293.057770 
	C340.532806,292.974396 337.855255,293.147125 335.206146,292.933105 
	C334.282928,292.858490 333.425720,291.966980 332.538391,291.448517 
	C332.677185,290.899384 332.815979,290.350220 332.954773,289.801086 
	C337.865021,289.801086 342.775299,289.811707 347.685516,289.797791 
	C351.815918,289.786041 354.590820,287.899292 354.516815,283.607422 
	C354.446777,279.549316 351.719299,277.873993 347.797241,277.891876 
	C340.634003,277.924500 333.470093,277.941742 326.307220,277.880768 
	C322.945648,277.852173 320.444031,278.932648 319.308044,283.250092 
z"/>
<path fill="#EF8A4C" opacity="1.000000" stroke="none" 
	d="
M297.705566,311.245728 
	C302.447815,317.031250 306.141327,323.984528 311.649994,328.906158 
	C328.134186,343.633789 359.719360,339.243103 370.612762,315.914185 
	C371.174194,314.711823 371.872223,313.573273 372.788269,312.206909 
	C373.810730,318.911072 369.586609,323.837006 365.757355,328.532135 
	C353.990295,342.959991 332.149658,347.195038 315.570068,337.072449 
	C314.749878,336.571686 313.771271,336.330414 312.510437,335.951691 
	C309.366547,332.723877 306.025970,329.833435 303.929565,326.220947 
	C301.256012,321.614075 299.588013,316.423645 297.705566,311.245728 
z"/>
<path fill="#A2CE68" opacity="1.000000" stroke="none" 
	d="
M245.977615,258.468262 
	C253.363068,260.298492 260.748505,262.128754 268.688019,264.299255 
	C274.425995,270.464508 279.609955,276.289520 284.793884,282.114502 
	C288.162262,290.904999 288.311188,299.947418 286.911499,309.556274 
	C286.916870,310.001129 286.734100,310.337128 286.401306,310.691223 
	C285.662476,311.745850 285.182220,312.414093 284.861450,313.151672 
	C279.053986,326.505981 269.045074,334.919067 254.632874,336.853180 
	C238.822708,338.974823 225.485748,333.908966 216.080704,320.450623 
	C213.933807,317.378479 212.272446,313.967010 210.387619,310.711731 
	C210.257599,310.026276 210.127579,309.340851 209.917343,307.908325 
	C207.641357,293.946167 210.226913,282.048615 219.344223,271.848083 
	C226.483765,263.860260 235.641495,260.024414 245.977615,258.468262 
M233.231369,296.505463 
	C233.231659,301.497528 233.177170,306.490356 233.246643,311.481445 
	C233.326065,317.186005 235.094940,319.006409 240.666794,319.070099 
	C246.822861,319.140472 252.981064,319.029541 259.136993,319.105957 
	C263.265808,319.157196 266.534058,318.105652 266.791992,313.306091 
	C266.997040,309.490295 264.268768,307.284363 259.344269,307.159882 
	C255.246292,307.056305 251.143616,307.138702 246.534943,307.138702 
	C246.534943,299.111237 246.632324,291.820343 246.499969,284.533600 
	C246.414871,279.849487 244.021210,277.493103 239.868347,277.518616 
	C235.682953,277.544312 233.373566,279.921112 233.254959,284.527588 
	C233.160751,288.186066 233.233276,291.848785 233.231369,296.505463 
z"/>
<path fill="#C48550" opacity="1.000000" stroke="none" 
	d="
M210.282150,311.108887 
	C212.272446,313.967010 213.933807,317.378479 216.080704,320.450623 
	C225.485748,333.908966 238.822708,338.974823 254.632874,336.853180 
	C269.045074,334.919067 279.053986,326.505981 284.861450,313.151672 
	C285.182220,312.414093 285.662476,311.745850 286.356750,310.877197 
	C285.668762,320.321289 280.646912,327.677460 273.472198,333.671967 
	C263.390686,342.094940 251.560715,343.663361 238.559586,341.942017 
	C231.865234,337.891968 224.593506,334.791443 219.641129,329.514313 
	C215.168427,324.748291 213.231720,317.602417 210.282150,311.108887 
z"/>
<path fill="#FBFEFF" opacity="1.000000" stroke="none" 
	d="
M347.380554,179.280548 
	C357.575165,184.543579 358.395203,192.707260 349.557831,201.382629 
	C351.410767,203.761765 353.416138,206.132065 355.188751,208.665192 
	C357.332367,211.728424 358.758209,215.273636 355.108002,217.947037 
	C351.847839,220.334763 348.058533,220.037842 345.235962,216.759598 
	C342.414673,213.482895 339.973602,209.879974 337.173950,206.582993 
	C336.173523,205.404831 334.611633,204.703415 332.110901,202.943161 
	C332.110901,207.482376 332.091125,210.423019 332.115601,213.363281 
	C332.151184,217.640350 329.572968,219.436005 325.782745,219.417725 
	C322.066833,219.399811 319.236542,217.668930 319.198273,213.473373 
	C319.108643,203.644363 318.893402,193.799500 319.400848,183.995819 
	C319.507812,181.929337 322.432220,178.373398 324.163330,178.308670 
	C331.757202,178.024734 339.389587,178.770721 347.380554,179.280548 
M332.339264,193.200348 
	C334.697174,193.438492 337.125580,194.084152 339.375000,193.695114 
	C340.169067,193.557770 340.525879,190.891937 341.082336,189.380524 
	C338.578796,188.967239 336.074005,188.327225 333.572845,188.341110 
	C333.099731,188.343735 332.641022,190.943954 332.339264,193.200348 
z"/>
<path fill="#A17D82" opacity="1.000000" stroke="none" 
	d="
M308.094971,232.949371 
	C304.684845,226.898331 301.252319,220.859695 297.897308,214.778244 
	C297.539124,214.128983 297.633698,213.229904 297.755188,212.224945 
	C302.059113,219.256332 306.219391,226.316147 313.438293,231.155502 
	C333.562531,244.646164 360.648712,237.436203 371.173828,215.583603 
	C371.677765,214.537308 372.163239,213.482101 372.945374,212.226852 
	C373.859650,218.928787 369.767517,223.837006 365.805817,228.587509 
	C356.759521,239.435104 345.033752,244.178299 330.092712,242.871979 
	C322.202118,239.518860 315.148529,236.234116 308.094971,232.949371 
z"/>
<path fill="#CC4534" opacity="1.000000" stroke="none" 
	d="
M175.288788,261.167603 
	C175.878799,259.189423 176.306320,256.851196 177.708115,255.715057 
	C188.780762,246.740768 200.052963,238.013062 211.221741,229.156525 
	C212.512360,228.133102 213.545715,226.785248 215.113403,225.489868 
	C220.667282,231.550430 225.833115,237.674789 233.987366,240.385681 
	C233.479797,241.737411 233.223190,243.027176 232.437454,243.660690 
	C226.002121,248.849258 219.383011,253.811508 212.988022,259.048004 
	C206.490768,264.368225 200.184998,269.922241 193.795380,275.373871 
	C188.691177,269.444794 183.009735,264.266418 175.288788,261.167603 
z"/>
<path fill="#D04A37" opacity="1.000000" stroke="none" 
	d="
M193.892029,275.698181 
	C200.184998,269.922241 206.490768,264.368225 212.988022,259.048004 
	C219.383011,253.811508 226.002121,248.849258 232.437454,243.660690 
	C233.223190,243.027176 233.479797,241.737411 234.326904,240.533691 
	C236.215042,240.893402 237.746918,241.932358 239.302643,241.969421 
	C246.193161,242.133575 253.090546,242.009995 259.985443,241.990524 
	C259.472321,243.242966 259.300507,244.897095 258.384552,245.675415 
	C255.134460,248.436996 251.522995,250.774048 248.281815,253.544907 
	C247.169815,254.495560 246.743454,256.248199 245.990738,258.051361 
	C235.641495,260.024414 226.483765,263.860260 219.344223,271.848083 
	C210.226913,282.048615 207.641357,293.946167 209.806519,307.577484 
	C206.731277,309.634033 203.686646,311.274384 200.286194,312.948120 
	C199.947479,311.879456 199.964584,310.777405 199.915253,309.263794 
	C202.037735,297.169556 200.426407,286.165283 193.892029,275.698181 
z"/>
<path fill="#FDFCFE" opacity="1.000000" stroke="none" 
	d="
M173.519440,314.688538 
	C165.260132,319.946045 156.435165,318.076111 147.915039,317.688995 
	C146.502579,317.624786 144.168060,314.283783 144.090363,312.382263 
	C143.696625,302.746582 143.931351,293.086060 143.893890,283.434448 
	C143.878555,279.486023 146.161957,277.483551 149.696198,277.294159 
	C154.498062,277.036865 159.388275,276.900299 164.136505,277.515411 
	C171.917618,278.523376 178.384811,282.177795 180.063248,290.426453 
	C181.853333,299.223785 182.267014,308.125244 173.519440,314.688538 
M156.944458,294.608215 
	C156.944458,298.852905 156.944458,303.097595 156.944458,307.284607 
	C161.199371,308.244354 165.217773,307.656006 166.064850,304.283875 
	C167.126984,300.055817 167.100113,295.054901 165.842697,290.902496 
	C164.849396,287.622345 160.731384,287.502899 156.944412,288.494415 
	C156.944412,290.388977 156.944412,292.022064 156.944458,294.608215 
z"/>
<path fill="#FFFDFC" opacity="1.000000" stroke="none" 
	d="
M267.255310,189.185944 
	C267.545502,195.044235 268.349030,200.578888 267.738861,205.953018 
	C266.676208,215.312241 257.992554,220.760284 246.367844,220.165558 
	C236.404480,219.655807 229.364975,213.056534 228.942352,203.755615 
	C228.829163,201.264221 228.896484,198.763962 228.905365,196.267853 
	C228.942413,185.845032 234.018539,179.379318 243.712936,177.390839 
	C254.097900,175.260712 263.149719,179.666611 267.255310,189.185944 
M250.730820,187.578629 
	C247.083435,186.250046 243.732468,187.657120 243.187302,190.973785 
	C242.355072,196.036667 242.149368,201.530502 243.255630,206.489319 
	C244.304535,211.191101 250.714508,211.414490 253.447617,207.343155 
	C256.428467,202.902786 255.273346,191.896713 250.730820,187.578629 
z"/>
<path fill="#DC5A44" opacity="1.000000" stroke="none" 
	d="
M260.206848,241.720947 
	C253.090546,242.009995 246.193161,242.133575 239.302643,241.969421 
	C237.746918,241.932358 236.215042,240.893402 234.332657,240.167603 
	C225.833115,237.674789 220.667282,231.550430 215.266418,225.190948 
	C213.513947,220.811798 212.023529,216.633636 210.769043,212.227295 
	C217.167648,224.940750 226.291306,234.162354 240.945724,237.255524 
	C256.137024,240.462036 273.874207,233.038635 281.738708,219.602524 
	C282.576752,218.170685 283.515411,216.797745 284.664581,215.187805 
	C286.077209,220.930115 281.955841,224.620331 278.826416,228.579941 
	C274.019440,234.662109 267.698547,238.785522 260.206848,241.720947 
z"/>
<path fill="#FFFCFD" opacity="1.000000" stroke="none" 
	d="
M149.900253,201.410645 
	C150.934891,196.481598 152.017883,191.948975 152.860703,187.372116 
	C153.740189,182.596283 156.876450,180.499023 161.298111,180.464935 
	C165.783325,180.430344 168.860962,182.814056 169.864243,187.350372 
	C171.100601,192.940506 172.228134,198.554688 174.327560,204.234848 
	C175.728622,198.518982 177.170990,192.812820 178.515747,187.083740 
	C179.360504,183.484726 181.313248,181.069016 185.105392,180.525650 
	C189.794632,179.853745 193.499649,183.458237 192.359406,188.044510 
	C189.991821,197.567337 187.408478,207.043793 184.614624,216.450439 
	C183.132736,221.439804 179.225616,223.252319 174.143356,223.118301 
	C169.132370,222.986176 165.940857,220.730377 164.763428,215.833527 
	C163.717728,211.484528 162.765015,207.113159 160.949249,202.652542 
	C160.053391,206.614731 159.201965,210.587631 158.251328,214.536636 
	C156.789856,220.607788 154.044296,222.939514 148.327576,223.091156 
	C142.086273,223.256699 139.336792,221.264282 137.569901,214.974808 
	C135.185272,206.486343 132.980682,197.947311 130.596619,189.458694 
	C129.428757,185.300430 130.127441,182.189331 134.690994,180.851074 
	C138.998001,179.588058 142.580032,181.540436 143.839874,186.170059 
	C145.452301,192.095413 146.790115,198.095459 148.415726,204.757828 
	C149.080688,203.374084 149.461884,202.580856 149.900253,201.410645 
z"/>
<path fill="#EA7178" opacity="1.000000" stroke="none" 
	d="
M199.636993,210.073578 
	C199.750793,210.227066 199.672165,210.545334 199.407166,211.032745 
	C199.295395,210.880722 199.369980,210.559540 199.636993,210.073578 
z"/>
<path fill="#D7503C" opacity="1.000000" stroke="none" 
	d="
M307.774902,233.095001 
	C315.148529,236.234116 322.202118,239.518860 329.629150,242.884888 
	C326.896332,245.842529 323.950806,248.919708 320.654022,251.557999 
	C310.309418,259.836395 299.778839,267.882843 289.459747,276.192322 
	C287.737061,277.579529 286.710724,279.831482 285.078247,281.899170 
	C279.609955,276.289520 274.425995,270.464508 269.038696,264.372009 
	C276.445648,257.795959 283.988770,251.403915 291.689911,245.208298 
	C296.828400,241.074326 302.191986,237.220062 307.774902,233.095001 
z"/>
<path fill="#735D5A" opacity="1.000000" stroke="none" 
	d="
M319.517334,410.998657 
	C319.811615,411.548035 319.638885,412.097260 318.763000,412.822876 
	C271.040741,412.999878 224.021591,413.000549 177.002441,413.001221 
	C177.003128,412.556213 177.003799,412.111237 177.009872,411.332520 
	C224.360260,410.998718 271.705261,410.998657 319.517334,410.998657 
z"/>
<path fill="#D3BAB6" opacity="1.000000" stroke="none" 
	d="
M130.608276,419.962952 
	C133.076096,419.951843 135.100677,419.960358 137.829590,420.243347 
	C142.022629,421.344818 145.511322,422.171814 148.888748,423.255096 
	C148.519135,424.006042 148.260788,424.500702 147.625977,424.996460 
	C146.496384,425.003326 145.743271,425.009003 144.590912,425.011932 
	C143.127090,425.007782 142.062469,425.006348 140.847107,424.791260 
	C140.131790,424.717377 139.567200,424.857208 138.615570,424.944153 
	C135.153564,424.261261 132.078629,423.631226 129.003662,423.001221 
	C127.378899,422.230072 125.754135,421.458893 124.052811,420.350983 
	C126.039177,420.003662 128.102097,419.993073 130.608276,419.962952 
z"/>
<path fill="#E9D1CE" opacity="1.000000" stroke="none" 
	d="
M152.001099,430.998901 
	C143.245590,431.460419 134.907761,429.954376 127.069870,425.369904 
	C127.160461,425.012604 127.329590,425.008636 128.109360,425.161133 
	C131.499649,426.149475 134.231476,427.358063 137.070938,427.718384 
	C140.668884,428.174927 144.354324,427.942017 148.400940,428.005463 
	C149.863327,428.006653 150.926773,428.008820 151.994476,428.384430 
	C151.999527,429.504883 152.000320,430.251892 152.001099,430.998901 
z"/>
<path fill="#E6C9C5" opacity="1.000000" stroke="none" 
	d="
M148.002029,428.006470 
	C144.354324,427.942017 140.668884,428.174927 137.070938,427.718384 
	C134.231476,427.358063 131.499649,426.149475 128.363129,425.159973 
	C128.263290,424.505981 128.520355,424.009674 128.890549,423.257263 
	C132.078629,423.631226 135.153564,424.261261 138.766693,425.157043 
	C139.869202,425.283539 140.433533,425.144226 140.997864,425.004944 
	C142.062469,425.006348 143.127090,425.007782 144.648193,425.331848 
	C146.070450,426.438507 147.036240,427.222504 148.002029,428.006470 
z"/>
<path fill="#CB978F" opacity="1.000000" stroke="none" 
	d="
M154.988083,419.024353 
	C154.991852,418.853577 154.995605,418.682800 155.471329,418.253296 
	C215.294083,417.995392 274.644867,417.996277 334.241425,418.256348 
	C335.665131,418.684662 336.843048,418.853760 337.913513,419.400574 
	C335.989655,420.183441 334.135284,420.469086 332.368378,421.030090 
	C330.849579,421.512360 329.430634,422.309113 327.500916,422.969574 
	C277.363281,422.973724 227.692245,422.975067 177.911636,422.592957 
	C176.149292,421.806427 174.517029,421.237701 172.840073,421.030212 
	C166.897659,420.294952 160.939972,419.683014 154.988083,419.024353 
z"/>
<path fill="#A7807A" opacity="1.000000" stroke="none" 
	d="
M333.995636,417.997131 
	C274.644867,417.996277 215.294083,417.995392 155.475586,417.997070 
	C154.692322,417.876953 154.428574,417.683594 154.087982,417.207458 
	C154.385147,416.830566 154.810944,416.665771 155.236740,416.500946 
	C154.917221,416.148346 154.597717,415.795776 154.138016,415.234253 
	C155.071213,415.016296 156.144577,415.007324 157.621155,414.984222 
	C164.037231,414.981110 170.050140,414.992065 176.991577,415.006775 
	C183.034729,415.336487 188.148743,415.933929 193.264008,415.944977 
	C230.483063,416.025421 267.702637,416.054443 304.921234,415.903778 
	C309.621796,415.884766 314.317719,414.726105 319.015808,414.095398 
	C326.356262,414.389282 333.696716,414.683167 341.501953,414.968445 
	C342.725830,414.977478 343.484985,414.995148 344.513794,415.268372 
	C344.527802,416.010986 344.272095,416.498047 343.568298,416.989136 
	C340.078674,417.327850 337.037170,417.662506 333.995636,417.997131 
z"/>
<path fill="#CCA6A0" opacity="1.000000" stroke="none" 
	d="
M154.521973,419.015411 
	C160.939972,419.683014 166.897659,420.294952 172.840073,421.030212 
	C174.517029,421.237701 176.149292,421.806427 177.454956,422.600830 
	C174.066147,423.000397 171.024414,423.008667 167.515503,423.015747 
	C161.032211,423.009277 155.016098,423.004028 149.000000,422.998779 
	C145.511322,422.171814 142.022629,421.344818 138.265076,420.241272 
	C143.349426,419.645264 148.702637,419.325867 154.521973,419.015411 
z"/>
<path fill="#876964" opacity="1.000000" stroke="none" 
	d="
M319.010376,413.821869 
	C314.317719,414.726105 309.621796,415.884766 304.921234,415.903778 
	C267.702637,416.054443 230.483063,416.025421 193.264008,415.944977 
	C188.148743,415.933929 183.034729,415.336487 177.459763,414.999237 
	C176.999649,414.546478 176.999924,414.105042 177.001312,413.332397 
	C224.021591,413.000549 271.040741,412.999878 318.528107,413.000214 
	C318.999176,413.183594 319.002045,413.365967 319.010376,413.821869 
z"/>
<path fill="#E9D1CE" opacity="1.000000" stroke="none" 
	d="
M372.998749,425.748413 
	C369.646118,426.844086 366.329987,427.886841 362.935333,428.482117 
	C357.287994,429.472382 351.590302,430.175537 345.456116,430.624451 
	C345.002228,429.503174 345.006012,428.757080 345.408325,428.008942 
	C346.870514,428.006958 347.934143,428.006989 349.266724,428.273926 
	C356.021729,427.361267 362.507812,426.181793 368.993896,425.002319 
	C370.062500,424.999146 371.131104,424.995941 372.600464,424.989563 
	C373.000793,425.155670 373.000366,425.325012 372.998749,425.748413 
z"/>
<path fill="#C1BCBC" opacity="1.000000" stroke="none" 
	d="
M376.957520,404.065430 
	C382.455200,405.018982 388.027710,405.682495 393.413086,407.071533 
	C395.512573,407.613068 397.190765,409.787994 400.147919,412.050751 
	C397.239868,413.780762 395.424286,415.399384 393.315094,416.019531 
	C385.432068,418.337433 377.452850,420.328308 368.816772,422.713257 
	C366.074158,422.972717 364.024506,422.960724 362.034180,422.590576 
	C364.396027,421.156128 366.698517,420.079895 369.408569,419.003845 
	C371.550018,418.348267 373.283844,417.692566 375.390442,417.025574 
	C376.509094,417.009918 377.254944,417.005554 378.206970,417.242004 
	C379.281921,416.997253 380.150696,416.511719 381.349487,416.019104 
	C382.119659,416.009857 382.559784,416.007690 383.231476,416.241394 
	C384.412262,416.348480 385.527222,416.493958 386.279724,416.039398 
	C388.540710,414.673706 390.660400,413.074036 392.835236,411.565674 
	C390.550690,410.382996 388.266144,409.200317 385.586121,408.011169 
	C384.137054,407.989288 383.083435,407.973877 381.969116,407.645691 
	C380.938324,407.216583 379.968292,407.100250 378.665894,406.987000 
	C377.890503,406.983765 377.447479,406.977417 377.005585,406.606964 
	C376.990295,405.517059 376.973907,404.791260 376.957520,404.065430 
z"/>
<path fill="#E6C9C5" opacity="1.000000" stroke="none" 
	d="
M361.974823,422.948730 
	C364.024506,422.960724 366.074158,422.972717 368.563049,422.977051 
	C369.001373,423.421265 369.000458,423.873138 368.996704,424.663635 
	C362.507812,426.181793 356.021729,427.361267 349.476624,428.024963 
	C350.280151,426.677765 351.142700,425.846375 352.338013,425.012482 
	C353.114471,425.009003 353.558197,425.008026 354.249939,425.264984 
	C356.662415,424.683441 358.826782,423.843964 361.237122,422.990723 
	C361.483032,422.976990 361.974823,422.948730 361.974823,422.948730 
z"/>
<path fill="#A9A19F" opacity="1.000000" stroke="none" 
	d="
M369.003448,406.170898 
	C369.194519,405.871124 369.385590,405.571381 369.797058,405.114899 
	C370.761230,404.983765 371.505005,405.009338 372.673462,405.364929 
	C373.742065,406.145844 374.386047,406.596741 375.019745,407.305756 
	C375.001770,407.736328 374.994049,407.908783 374.582092,408.066772 
	C372.453064,407.425140 370.728241,406.798035 369.003448,406.170898 
z"/>
<path fill="#B4B0B0" opacity="1.000000" stroke="none" 
	d="
M375.030029,407.047607 
	C374.386047,406.596741 373.742065,406.145844 373.045288,405.384186 
	C374.073212,404.728638 375.153961,404.383881 376.596130,404.052277 
	C376.973907,404.791260 376.990295,405.517059 377.003174,406.633301 
	C376.999664,407.023712 376.993286,407.076172 376.666107,407.059113 
	C375.902618,407.043915 375.466339,407.045776 375.030029,407.047607 
z"/>
<path fill="#968B8A" opacity="1.000000" stroke="none" 
	d="
M368.604309,406.128235 
	C370.728241,406.798035 372.453064,407.425140 374.631592,408.404266 
	C375.623779,409.904114 376.162231,411.051941 376.569122,411.919250 
	C374.199310,413.389404 372.098206,414.692871 369.624573,416.003357 
	C368.507111,416.018555 367.762115,416.026764 366.795593,415.778198 
	C365.377167,415.715240 364.180267,415.909058 362.667053,416.096832 
	C361.929901,416.089111 361.509094,416.087433 360.652100,416.060303 
	C358.464020,416.006683 356.712158,415.978455 354.960297,415.950195 
	C356.597870,415.299835 358.199524,414.527771 359.882385,414.030579 
	C361.887024,413.438293 363.961304,413.081787 366.005432,412.623108 
	C365.982483,412.149109 365.959534,411.675110 365.936584,411.201141 
	C364.345734,410.385651 362.754852,409.570190 361.073822,408.402283 
	C360.987091,407.876648 360.990570,407.703430 360.996399,407.270386 
	C361.845795,406.866211 362.692841,406.721771 363.762634,406.344543 
	C364.154663,406.095459 364.323944,406.079132 364.746643,406.033264 
	C366.068390,406.031006 367.136810,406.058258 368.604309,406.128235 
z"/>
<path fill="#A79593" opacity="1.000000" stroke="none" 
	d="
M354.568176,415.956818 
	C356.712158,415.978455 358.464020,416.006683 360.522156,416.436279 
	C356.549164,417.216736 352.269867,417.595825 347.990906,417.610107 
	C348.005371,416.518158 348.019470,415.790955 348.033569,415.063782 
	C350.081085,415.363678 352.128571,415.663544 354.568176,415.956818 
z"/>
<path fill="#968B8A" opacity="1.000000" stroke="none" 
	d="
M347.654633,415.042542 
	C348.019470,415.790955 348.005371,416.518158 347.617126,417.619965 
	C346.494720,417.990692 345.746490,417.986816 344.885437,417.771484 
	C344.572571,417.299957 344.320496,417.108307 344.016388,416.985107 
	C344.272095,416.498047 344.527802,416.010986 344.892975,415.271484 
	C345.760193,415.019806 346.517944,415.020569 347.654633,415.042542 
z"/>
<path fill="#E6C1BC" opacity="1.000000" stroke="none" 
	d="
M291.997528,431.996704 
	C272.077942,431.996857 252.158356,431.997681 232.238770,431.996796 
	C223.431610,431.996429 214.624466,431.992645 205.409058,431.621002 
	C204.997345,430.505920 204.993896,429.760284 205.460159,429.008301 
	C234.623169,429.006195 263.316467,429.010437 292.005615,429.387451 
	C292.000122,430.505707 291.998840,431.251221 291.997528,431.996704 
z"/>
<path fill="#E6C9C5" opacity="1.000000" stroke="none" 
	d="
M319.000000,432.004822 
	C317.612640,432.004456 316.225311,432.004089 314.422028,432.004913 
	C310.537476,431.856689 307.068848,431.707306 303.300354,430.947174 
	C303.001129,429.892181 303.001770,429.447906 303.335327,429.002808 
	C304.112122,429.002930 304.556061,429.003937 305.294800,429.279724 
	C309.619476,429.677795 313.651123,429.905212 317.677582,429.834747 
	C318.465149,429.820953 319.232483,428.652039 320.425140,428.013672 
	C322.227753,428.010712 323.614380,428.009979 325.303955,428.286713 
	C329.406616,428.711853 333.206360,428.859558 337.005127,429.340698 
	C337.003387,430.118774 337.002625,430.563416 337.001892,431.008087 
	C334.634003,431.009888 332.266083,431.011688 329.007202,431.009644 
	C325.077454,431.338806 322.038727,431.671814 319.000000,432.004822 
z"/>
<path fill="#E6C9C5" opacity="1.000000" stroke="none" 
	d="
M183.447693,432.003296 
	C181.607254,432.005157 180.220001,432.004211 178.114838,431.724121 
	C173.594696,431.301605 169.792496,431.158234 165.990280,431.014832 
	C164.603333,431.012756 163.216385,431.010651 161.414948,430.754303 
	C161.001266,430.329803 161.002090,430.159546 161.303070,429.712891 
	C165.074768,429.284760 168.546310,429.133026 172.470779,428.982666 
	C175.948471,428.984772 178.973221,428.985504 182.288528,429.263916 
	C185.719406,429.362762 188.859726,429.183838 192.332901,429.003784 
	C193.109482,429.002991 193.553207,429.003326 193.997696,429.336853 
	C193.998962,430.114380 193.999481,430.558716 194.000000,431.003052 
	C190.633621,431.335510 187.267242,431.667969 183.447693,432.003296 
z"/>
<path fill="#E6C9C5" opacity="1.000000" stroke="none" 
	d="
M299.000000,431.003052 
	C298.222809,431.332489 297.445618,431.661957 296.333740,431.621155 
	C296.002167,430.505035 296.005341,429.759186 296.381683,429.010406 
	C297.501190,429.007843 298.247528,429.008179 298.995422,429.340881 
	C298.997955,430.116547 298.998962,430.559784 299.000000,431.003052 
z"/>
<path fill="#E6C9C5" opacity="1.000000" stroke="none" 
	d="
M201.003021,431.995880 
	C200.146835,431.831635 199.290665,431.667358 198.217651,430.920593 
	C198.002579,429.894867 198.004349,429.451721 198.379227,429.007050 
	C199.498642,429.008148 200.244949,429.010712 200.994904,429.386230 
	C201.000061,430.504700 201.001541,431.250305 201.003021,431.995880 
z"/>
<path fill="#E6C1BC" opacity="1.000000" stroke="none" 
	d="
M198.006104,429.008545 
	C198.004349,429.451721 198.002579,429.894867 198.000412,430.670532 
	C196.933151,431.002533 195.866302,431.002045 194.399719,431.002289 
	C193.999481,430.558716 193.998962,430.114380 194.398590,429.333282 
	C195.867844,429.000519 196.936981,429.004547 198.006104,429.008545 
z"/>
<path fill="#E6C1BC" opacity="1.000000" stroke="none" 
	d="
M299.399719,431.002350 
	C298.998962,430.559784 298.997955,430.116547 299.396362,429.335938 
	C300.864685,429.000244 301.933563,429.001953 303.002441,429.003662 
	C303.001770,429.447906 303.001129,429.892181 303.000244,430.669739 
	C301.933136,431.002563 300.866302,431.002106 299.399719,431.002350 
z"/>
<path fill="#E6C1BC" opacity="1.000000" stroke="none" 
	d="
M201.335495,431.996765 
	C201.001541,431.250305 201.000061,430.504700 201.331284,429.380920 
	C202.112411,429.006317 202.560837,429.009888 203.005188,429.386292 
	C202.999863,430.504852 202.998581,431.250610 202.997314,431.996338 
	C202.554199,431.996765 202.111084,431.997192 201.335495,431.996765 
z"/>
<path fill="#E6C9C5" opacity="1.000000" stroke="none" 
	d="
M203.331146,431.997986 
	C202.998581,431.250610 202.999863,430.504852 203.335327,429.383911 
	C204.109833,429.010681 204.550140,429.012665 204.990448,429.014648 
	C204.993896,429.760284 204.997345,430.505920 205.001511,431.624329 
	C204.556473,431.997925 204.110718,431.998779 203.331146,431.997986 
z"/>
<path fill="#E6C9C5" opacity="1.000000" stroke="none" 
	d="
M292.331970,431.998169 
	C291.998840,431.251221 292.000122,430.505707 292.335663,429.384583 
	C293.110107,429.010468 293.550354,429.011932 293.994690,429.386292 
	C294.000122,430.504852 294.001404,431.250610 294.002686,431.996338 
	C293.557251,431.997437 293.111816,431.998535 292.331970,431.998169 
z"/>
<path fill="#E6C1BC" opacity="1.000000" stroke="none" 
	d="
M294.334808,431.997131 
	C294.001404,431.250610 294.000122,430.504852 294.331085,429.380951 
	C295.111725,429.006287 295.560150,429.009796 296.008545,429.013306 
	C296.005341,429.759186 296.002167,430.505035 295.998169,431.623627 
	C295.553864,431.996887 295.110382,431.997406 294.334808,431.997131 
z"/>
<path fill="#E9D1CE" opacity="1.000000" stroke="none" 
	d="
M166.096588,431.397400 
	C169.792496,431.158234 173.594696,431.301605 177.698517,431.724915 
	C174.067719,431.929871 170.135315,431.854919 166.096588,431.397400 
z"/>
<path fill="#E6C9C5" opacity="1.000000" stroke="none" 
	d="
M152.334381,430.999054 
	C152.000320,430.251892 151.999527,429.504883 152.418243,428.380402 
	C154.894440,428.664978 156.951126,429.326996 158.621826,429.992371 
	C156.823898,430.329285 155.411942,430.662811 154.000000,430.996368 
	C153.555893,430.997314 153.111771,430.998260 152.334381,430.999054 
z"/>
<path fill="#E9D1CE" opacity="1.000000" stroke="none" 
	d="
M154.268082,431.262756 
	C155.411942,430.662811 156.823898,430.329285 158.954239,429.994141 
	C160.116058,429.991425 160.559494,429.990356 161.002930,429.989258 
	C161.002090,430.159546 161.001266,430.329803 160.998840,430.755554 
	C158.843552,431.183716 156.689865,431.356415 154.268082,431.262756 
z"/>
<path fill="#E9D1CE" opacity="1.000000" stroke="none" 
	d="
M319.295258,432.279724 
	C322.038727,431.671814 325.077454,431.338806 328.563660,431.011780 
	C326.421600,434.905640 322.807831,432.515106 319.295258,432.279724 
z"/>
<path fill="#E9D1CE" opacity="1.000000" stroke="none" 
	d="
M337.259064,431.268005 
	C337.002625,430.563416 337.003387,430.118774 337.379028,429.339417 
	C338.501984,429.005219 339.250061,429.005737 340.193695,429.245789 
	C341.259247,429.988953 342.129272,430.492615 342.999268,430.996246 
	C341.171600,431.173492 339.343903,431.350708 337.259064,431.268005 
z"/>
<path fill="#E6C9C5" opacity="1.000000" stroke="none" 
	d="
M343.331940,430.996399 
	C342.129272,430.492615 341.259247,429.988953 340.455017,428.979248 
	C342.017120,428.319092 343.513428,428.165039 345.009766,428.010986 
	C345.006012,428.757080 345.002228,429.503174 344.996765,430.622192 
	C344.551605,430.995605 344.108124,430.996094 343.331940,430.996399 
z"/>
<path fill="#FFFDF9" opacity="1.000000" stroke="none" 
	d="
M319.381195,282.826843 
	C320.444031,278.932648 322.945648,277.852173 326.307220,277.880768 
	C333.470093,277.941742 340.634003,277.924500 347.797241,277.891876 
	C351.719299,277.873993 354.446777,279.549316 354.516815,283.607422 
	C354.590820,287.899292 351.815918,289.786041 347.685516,289.797791 
	C342.775299,289.811707 337.865021,289.801086 332.954773,289.801086 
	C332.815979,290.350220 332.677185,290.899384 332.538391,291.448517 
	C333.425720,291.966980 334.282928,292.858490 335.206146,292.933105 
	C337.855255,293.147125 340.532806,292.974396 343.195953,293.057770 
	C346.608704,293.164551 349.109314,294.527222 349.075836,298.349976 
	C349.043030,302.096039 346.547119,303.578491 343.192047,303.781342 
	C340.369446,303.951935 337.528229,303.799896 334.701538,303.928436 
	C334.029114,303.959015 333.381714,304.539520 332.690613,306.097473 
	C334.070953,306.384308 335.444916,306.876129 336.832794,306.919159 
	C340.827393,307.042938 344.829987,306.904938 348.824890,307.022888 
	C352.477112,307.130676 354.931885,308.875427 355.001862,312.762054 
	C355.076355,316.898651 352.574493,318.818359 348.681000,318.868439 
	C341.185669,318.964874 333.686707,318.989044 326.192139,318.866302 
	C321.252838,318.785431 319.312408,316.774048 319.273560,311.735535 
	C319.200348,302.241058 319.287537,292.745300 319.381195,282.826843 
z"/>
<path fill="#FCFDFA" opacity="1.000000" stroke="none" 
	d="
M233.231567,296.007568 
	C233.233276,291.848785 233.160751,288.186066 233.254959,284.527588 
	C233.373566,279.921112 235.682953,277.544312 239.868347,277.518616 
	C244.021210,277.493103 246.414871,279.849487 246.499969,284.533600 
	C246.632324,291.820343 246.534943,299.111237 246.534943,307.138702 
	C251.143616,307.138702 255.246292,307.056305 259.344269,307.159882 
	C264.268768,307.284363 266.997040,309.490295 266.791992,313.306091 
	C266.534058,318.105652 263.265808,319.157196 259.136993,319.105957 
	C252.981064,319.029541 246.822861,319.140472 240.666794,319.070099 
	C235.094940,319.006409 233.326065,317.186005 233.246643,311.481445 
	C233.177170,306.490356 233.231659,301.497528 233.231567,296.007568 
z"/>
<path fill="#54C0E6" opacity="1.000000" stroke="none" 
	d="
M332.257477,192.772980 
	C332.641022,190.943954 333.099731,188.343735 333.572845,188.341110 
	C336.074005,188.327225 338.578796,188.967239 341.082336,189.380524 
	C340.525879,190.891937 340.169067,193.557770 339.375000,193.695114 
	C337.125580,194.084152 334.697174,193.438492 332.257477,192.772980 
z"/>
<path fill="#A391C3" opacity="1.000000" stroke="none" 
	d="
M156.944427,294.131683 
	C156.944412,292.022064 156.944412,290.388977 156.944412,288.494415 
	C160.731384,287.502899 164.849396,287.622345 165.842697,290.902496 
	C167.100113,295.054901 167.126984,300.055817 166.064850,304.283875 
	C165.217773,307.656006 161.199371,308.244354 156.944458,307.284607 
	C156.944458,303.097595 156.944458,298.852905 156.944427,294.131683 
z"/>
<path fill="#FF876D" opacity="1.000000" stroke="none" 
	d="
M251.071442,187.763550 
	C255.273346,191.896713 256.428467,202.902786 253.447617,207.343155 
	C250.714508,211.414490 244.304535,211.191101 243.255630,206.489319 
	C242.149368,201.530502 242.355072,196.036667 243.187302,190.973785 
	C243.732468,187.657120 247.083435,186.250046 251.071442,187.763550 
z"/>
<path fill="#E2B5AE" opacity="1.000000" stroke="none" 
	d="
M296.381683,429.010437 
	C295.560150,429.009796 295.111725,429.006287 294.326965,429.008118 
	C293.550354,429.011932 293.110107,429.010468 292.339844,429.011810 
	C263.316467,429.010437 234.623169,429.006195 205.460159,429.008301 
	C204.550140,429.012665 204.109833,429.010681 203.339386,429.011047 
	C202.560837,429.009888 202.112411,429.006317 201.327606,429.008026 
	C200.244949,429.010712 199.498642,429.008148 198.379227,429.007050 
	C196.936981,429.004547 195.867844,429.000519 194.397827,429.000092 
	C193.553207,429.003326 193.109482,429.002991 192.041321,428.728210 
	C188.277252,428.631226 185.137619,428.808716 181.997986,428.986206 
	C178.973221,428.985504 175.948471,428.984772 172.360626,428.598022 
	C163.865860,427.139740 155.934143,426.067535 148.002441,424.995331 
	C148.260788,424.500702 148.519135,424.006042 148.888748,423.255096 
	C155.016098,423.004028 161.032211,423.009277 167.626495,423.401276 
	C169.213364,424.189697 170.205215,424.889648 171.233322,424.947723 
	C184.230453,425.681671 197.232742,426.877563 210.233780,426.878204 
	C241.961395,426.879791 273.689575,426.359253 305.416199,425.946167 
	C311.806396,425.862946 318.199585,425.434814 324.571289,424.918060 
	C326.095337,424.794434 327.538818,423.677887 329.425354,423.074158 
	C331.948456,423.416260 334.073792,423.992920 336.181000,423.932831 
	C342.121399,423.763550 348.054352,423.332642 353.994507,423.338501 
	C353.999817,424.117065 354.000854,424.562073 354.001892,425.007050 
	C353.558197,425.008026 353.114471,425.009003 351.889648,425.006409 
	C347.530762,425.343323 343.945496,425.620422 340.376923,426.039398 
	C335.245270,426.641876 330.125732,427.347626 325.001038,428.009277 
	C323.614380,428.009979 322.227753,428.010712 319.958923,428.007324 
	C314.384460,428.337128 309.692230,428.671051 304.999969,429.004944 
	C304.556061,429.003937 304.112122,429.002930 303.335327,429.002808 
	C301.933563,429.001953 300.864685,429.000244 299.394836,429.003540 
	C298.247528,429.008179 297.501190,429.007843 296.381683,429.010437 
z"/>
<path fill="#E6C1BC" opacity="1.000000" stroke="none" 
	d="
M147.625977,424.996460 
	C155.934143,426.067535 163.865860,427.139740 171.907715,428.596619 
	C168.546310,429.133026 165.074768,429.284760 161.303070,429.712891 
	C160.559494,429.990356 160.116058,429.991425 159.340210,429.990753 
	C156.951126,429.326996 154.894440,428.664978 152.414001,428.006958 
	C150.926773,428.008820 149.863327,428.006653 148.400940,428.005463 
	C147.036240,427.222504 146.070450,426.438507 145.047409,425.334595 
	C145.743271,425.009003 146.496384,425.003326 147.625977,424.996460 
z"/>
<path fill="#E6C1BC" opacity="1.000000" stroke="none" 
	d="
M140.847107,424.791229 
	C140.433533,425.144226 139.869202,425.283539 139.153748,425.209900 
	C139.567200,424.857208 140.131790,424.717377 140.847107,424.791229 
z"/>
<path fill="#DEA9A1" opacity="1.000000" stroke="none" 
	d="
M329.019348,423.018005 
	C327.538818,423.677887 326.095337,424.794434 324.571289,424.918060 
	C318.199585,425.434814 311.806396,425.862946 305.416199,425.946167 
	C273.689575,426.359253 241.961395,426.879791 210.233780,426.878204 
	C197.232742,426.877563 184.230453,425.681671 171.233322,424.947723 
	C170.205215,424.889648 169.213364,424.189697 168.093674,423.402466 
	C171.024414,423.008667 174.066147,423.000397 177.564545,422.984283 
	C227.692245,422.975067 277.363281,422.973724 327.763977,422.983704 
	C328.668884,423.002716 328.844116,423.010345 329.019348,423.018005 
z"/>
<path fill="#CCA6A0" opacity="1.000000" stroke="none" 
	d="
M329.425354,423.074158 
	C328.844116,423.010345 328.668884,423.002716 328.230591,422.980927 
	C329.430634,422.309113 330.849579,421.512360 332.368378,421.030090 
	C334.135284,420.469086 335.989655,420.183441 338.317169,419.394073 
	C340.884918,418.667542 342.941589,418.325226 344.998230,417.982910 
	C345.746490,417.986816 346.494720,417.990692 347.616760,417.984741 
	C352.269867,417.595825 356.549164,417.216736 360.958374,416.461700 
	C361.509094,416.087433 361.929901,416.089111 362.925049,416.341339 
	C364.685669,416.735596 365.871918,416.879364 367.366760,417.072998 
	C368.117218,417.749817 368.559113,418.376740 369.001007,419.003662 
	C366.698517,420.079895 364.396027,421.156128 362.034180,422.590576 
	C361.974823,422.948730 361.483032,422.976990 360.800415,422.979858 
	C358.075287,422.990112 356.032745,422.997498 353.990234,423.004883 
	C348.054352,423.332642 342.121399,423.763550 336.181000,423.932831 
	C334.073792,423.992920 331.948456,423.416260 329.425354,423.074158 
z"/>
<path fill="#A79593" opacity="1.000000" stroke="none" 
	d="
M344.885437,417.771484 
	C342.941589,418.325226 340.884918,418.667542 338.424622,419.016357 
	C336.843048,418.853760 335.665131,418.684662 334.241425,418.256348 
	C337.037170,417.662506 340.078674,417.327850 343.568298,416.989136 
	C344.320496,417.108307 344.572571,417.299957 344.885437,417.771484 
z"/>
<path fill="#E6C1BC" opacity="1.000000" stroke="none" 
	d="
M325.303955,428.286713 
	C330.125732,427.347626 335.245270,426.641876 340.376923,426.039398 
	C343.945496,425.620422 347.530762,425.343323 351.556885,425.008911 
	C351.142700,425.846375 350.280151,426.677765 349.207703,427.758118 
	C347.934143,428.006989 346.870514,428.006958 345.408325,428.008942 
	C343.513428,428.165039 342.017120,428.319092 340.259460,428.739685 
	C339.250061,429.005737 338.501984,429.005219 337.380005,429.005981 
	C333.206360,428.859558 329.406616,428.711853 325.303955,428.286713 
z"/>
<path fill="#A9A19F" opacity="1.000000" stroke="none" 
	d="
M377.002075,406.997375 
	C377.447479,406.977417 377.890503,406.983765 378.882843,407.241943 
	C380.298065,407.648651 381.163971,407.803558 382.029846,407.958466 
	C383.083435,407.973877 384.137054,407.989288 385.630920,408.349030 
	C386.611237,409.918365 387.151276,411.143341 387.568756,412.090363 
	C385.829498,413.580811 384.414734,414.793182 382.999939,416.005554 
	C382.559784,416.007690 382.119659,416.009857 381.011230,416.011292 
	C379.562225,416.340759 378.781525,416.670990 378.000824,417.001221 
	C377.254944,417.005554 376.509094,417.009918 375.176697,416.901306 
	C374.317688,416.587585 374.118805,416.330048 374.242188,415.750732 
	C376.829681,414.512115 379.168427,413.538483 381.507202,412.564880 
	C380.035736,410.894806 378.560974,409.227600 377.100647,407.547852 
	C377.007385,407.440582 377.026459,407.235657 376.993286,407.076172 
	C376.993286,407.076172 376.999664,407.023712 377.002075,406.997375 
z"/>
<path fill="#B4B0B0" opacity="1.000000" stroke="none" 
	d="
M383.231506,416.241425 
	C384.414734,414.793182 385.829498,413.580811 387.568756,412.090363 
	C387.151276,411.143341 386.611237,409.918365 386.026367,408.355499 
	C388.266144,409.200317 390.550690,410.382996 392.835236,411.565674 
	C390.660400,413.074036 388.540710,414.673706 386.279724,416.039398 
	C385.527222,416.493958 384.412262,416.348480 383.231506,416.241425 
z"/>
<path fill="#B4B0B0" opacity="1.000000" stroke="none" 
	d="
M373.993469,416.015686 
	C374.118805,416.330048 374.317688,416.587585 374.803925,416.912598 
	C373.283844,417.692566 371.550018,418.348267 369.408569,419.003845 
	C368.559113,418.376740 368.117218,417.749817 367.353729,416.825928 
	C367.032135,416.528961 367.017120,416.034973 367.017120,416.034973 
	C367.762115,416.026764 368.507111,416.018555 370.024353,416.013733 
	C371.862213,416.016663 372.927826,416.016174 373.993469,416.015686 
z"/>
<path fill="#B4B0B0" opacity="1.000000" stroke="none" 
	d="
M381.969116,407.645691 
	C381.163971,407.803558 380.298065,407.648651 379.215210,407.238831 
	C379.968292,407.100250 380.938324,407.216583 381.969116,407.645691 
z"/>
<path fill="#B4B0B0" opacity="1.000000" stroke="none" 
	d="
M378.206970,417.242004 
	C378.781525,416.670990 379.562225,416.340759 380.681213,416.018372 
	C380.150696,416.511719 379.281921,416.997253 378.206970,417.242004 
z"/>
<path fill="#E6C1BC" opacity="1.000000" stroke="none" 
	d="
M353.994507,423.338501 
	C356.032745,422.997498 358.075287,422.990112 360.554504,422.993591 
	C358.826782,423.843964 356.662415,424.683441 354.249939,425.264984 
	C354.000854,424.562073 353.999817,424.117065 353.994507,423.338501 
z"/>
<path fill="#A79593" opacity="1.000000" stroke="none" 
	d="
M374.242188,415.750702 
	C372.927826,416.016174 371.862213,416.016663 370.396820,416.006775 
	C372.098206,414.692871 374.199310,413.389404 376.569122,411.919250 
	C376.162231,411.051941 375.623779,409.904114 375.035797,408.418762 
	C374.994049,407.908783 375.001770,407.736328 375.019745,407.305756 
	C375.466339,407.045776 375.902618,407.043915 376.666107,407.059113 
	C377.026459,407.235657 377.007385,407.440582 377.100647,407.547852 
	C378.560974,409.227600 380.035736,410.894806 381.507202,412.564880 
	C379.168427,413.538483 376.829681,414.512115 374.242188,415.750702 
z"/>
<path fill="#A79593" opacity="1.000000" stroke="none" 
	d="
M366.795593,415.778198 
	C367.017120,416.034973 367.032135,416.528961 367.045166,416.776062 
	C365.871918,416.879364 364.685669,416.735596 363.241394,416.347351 
	C364.180267,415.909058 365.377167,415.715240 366.795593,415.778198 
z"/>
<path fill="#E6C1BC" opacity="1.000000" stroke="none" 
	d="
M305.294800,429.279724 
	C309.692230,428.671051 314.384460,428.337128 319.542969,428.009583 
	C319.232483,428.652039 318.465149,429.820953 317.677582,429.834747 
	C313.651123,429.905212 309.619476,429.677795 305.294800,429.279724 
z"/>
<path fill="#E6C1BC" opacity="1.000000" stroke="none" 
	d="
M182.288528,429.263916 
	C185.137619,428.808716 188.277252,428.631226 191.708466,428.729340 
	C188.859726,429.183838 185.719406,429.362762 182.288528,429.263916 
z"/>
</svg>